<svg width="40" height="40" viewBox="0 0 40 40" fill="none" xmlns="http://www.w3.org/2000/svg">
<g clip-path="url(#clip0)">
<path d="M16.5339 27.5453C16.8296 27.2496 16.8296 26.7712 16.5339 26.4756C16.238 26.1808 15.7587 26.1808 15.4625 26.4756C15.1671 26.7712 15.1671 27.2496 15.4625 27.5453C15.7587 27.84 16.238 27.84 16.5339 27.5453Z" fill="#111546"/>
<path d="M12.8973 9.60446C12.8973 14.2166 16.6568 17.9689 21.2777 17.9689C25.8986 17.9689 29.6581 14.2166 29.6581 9.60446C29.6581 4.99232 25.8986 1.24028 21.2777 1.24028C16.6568 1.24028 12.8973 4.99232 12.8973 9.60446ZM28.0437 9.60446C28.0437 13.3278 25.0085 16.3571 21.2777 16.3571C17.5469 16.3571 14.5117 13.3278 14.5117 9.60446C14.5117 5.88145 17.5469 2.85209 21.2777 2.85209C25.0085 2.85209 28.0437 5.88145 28.0437 9.60446Z" fill="#111546" stroke="#111546" stroke-width="0.1"/>
<path d="M13.4988 34.9175L13.4986 34.9177L9.82692 38.5279L9.79186 38.4922L9.82692 38.5279C9.50989 38.8395 9.00049 38.8361 8.68758 38.5212L0.184332 29.9699L0.184325 29.9699C-0.128628 29.6551 -0.128011 29.1471 0.185598 28.8332L3.78829 25.2269L3.78835 25.2268C4.33745 24.6788 5.09744 24.4549 5.82253 24.5802C7.54536 21.4308 10.7386 19.753 14.3891 19.753C15.7079 19.753 16.9863 20.007 18.1915 20.5088H26.6264C27.5523 20.5088 28.4103 20.9302 28.984 21.6093L33.4129 17.0661C34.5119 15.7954 36.4427 15.64 37.7318 16.7243L37.7319 16.7244C39.0296 17.8193 39.1936 19.7622 38.0976 21.0563C35.1265 24.6003 33.4456 26.6067 32.493 27.7438C32.2804 27.9975 32.1041 28.2079 31.9578 28.3825C31.2458 29.2323 31.2442 29.2335 31.2323 29.2432L13.4988 34.9175ZM13.4988 34.9175C14.1288 34.2888 14.3254 33.3622 14.0601 32.5507L14.8271 31.8124L14.8271 31.8124C15.243 31.4114 15.7904 31.1905 16.3693 31.1905H26.4371C28.2362 31.1905 29.9368 30.5009 31.226 29.2488L13.4988 34.9175ZM36.8623 20.0188L36.8621 20.019L30.0713 28.1214C29.0889 29.0616 27.7998 29.579 26.4371 29.579H16.3693C15.3699 29.579 14.4235 29.9606 13.7058 30.6527L13.0975 31.2385L7.22554 25.3783C8.60688 22.8204 11.1825 21.3645 14.3888 21.3645C15.542 21.3645 16.6566 21.5962 17.7028 22.0529C17.805 22.0976 17.9151 22.1206 18.0264 22.1206H26.6264C27.4206 22.1206 28.0912 22.7672 28.0912 23.5821C28.0912 24.3881 27.4343 25.0439 26.6264 25.0439H20.4476C20.0019 25.0439 19.6403 25.4046 19.6403 25.8497C19.6403 26.295 20.0019 26.6554 20.4476 26.6554H26.6264C28.3244 26.6554 29.7057 25.2769 29.7057 23.5821C29.7057 23.455 29.6972 23.3292 29.6817 23.2046C31.0834 21.7665 32.0934 20.7306 32.819 19.9863C33.2069 19.5884 33.5136 19.2739 33.7555 19.0258C34.1035 18.6688 34.3172 18.4493 34.4456 18.3172C34.5718 18.1874 34.6172 18.1402 34.6257 18.1301C35.1477 17.5153 36.0744 17.4373 36.6907 17.9559C37.3075 18.4764 37.3856 19.4005 36.8623 20.0188ZM5.80694 26.2667L5.8072 26.2669C5.81596 26.2722 5.82143 26.2752 5.82571 26.2776C5.83207 26.2812 5.83579 26.2832 5.84379 26.2892C5.85662 26.2987 5.87728 26.3164 5.92202 26.359C6.01093 26.4436 6.18826 26.6197 6.57494 27.006C6.72747 27.1584 6.9125 27.3435 7.13742 27.5684C8.0521 28.4831 9.62643 30.0575 12.3573 32.7793C12.6399 33.0613 12.6247 33.5109 12.3615 33.7736C12.3615 33.7737 12.3615 33.7737 12.3614 33.7737L9.26702 36.8163L1.89599 29.4035L4.93077 26.3658C5.16402 26.1331 5.52202 26.0909 5.80694 26.2667Z" fill="#111546" stroke="#111546" stroke-width="0.1"/>
<path d="M20.3693 5.06953V5.95522C19.4878 6.26709 18.8546 7.10731 18.8546 8.09283C18.8546 9.34297 19.8737 10.3604 21.1266 10.3604C21.5441 10.3604 21.8838 10.6994 21.8838 11.1161C21.8838 11.5329 21.5441 11.8719 21.1266 11.8719C20.8031 11.8719 20.4537 11.669 20.1432 11.3001C19.874 10.9806 19.3964 10.9395 19.0762 11.208C18.756 11.4767 18.7146 11.9534 18.9839 12.273C19.3887 12.7535 19.8648 13.0884 20.3693 13.2573V14.1395C20.3693 14.5571 20.7084 14.8952 21.1266 14.8952C21.5447 14.8952 21.8838 14.5571 21.8838 14.1395V13.2538C22.7653 12.9416 23.3986 12.1014 23.3986 11.1161C23.3986 9.86571 22.3794 8.84859 21.1266 8.84859C20.709 8.84859 20.3693 8.50955 20.3693 8.09283C20.3693 7.67612 20.709 7.33679 21.1266 7.33679C21.3949 7.33679 21.6781 7.47352 21.9456 7.73194C22.2463 8.02225 22.7257 8.01428 23.0165 7.71451C23.3074 7.41446 23.2994 6.93602 22.9991 6.64571C22.6147 6.27448 22.23 6.0645 21.8838 5.94991V5.06953C21.8838 4.65193 21.5447 4.31348 21.1266 4.31348C20.7084 4.31348 20.3693 4.65193 20.3693 5.06953Z" fill="#111546"/>
</g>
<defs>
<clipPath id="clip0">
<rect width="40" height="40" fill="white"/>
</clipPath>
</defs>
</svg>
