<svg width="34" height="34" viewBox="0 0 34 34" fill="none" xmlns="http://www.w3.org/2000/svg">
<path d="M17 0C7.62582 0 0 7.62582 0 17C0 26.3742 7.62582 34 17 34C26.3742 34 34 26.3742 34 17C34 7.62582 26.3742 0 17 0Z" fill="#D7141A"/>
<path d="M23.2605 21.257C23.8143 21.8111 23.8143 22.7063 23.2605 23.2604C22.9843 23.5366 22.6216 23.6754 22.2587 23.6754C21.8961 23.6754 21.5334 23.5366 21.2572 23.2604L17.0002 19.0031L12.7432 23.2604C12.4669 23.5366 12.1043 23.6754 11.7416 23.6754C11.3787 23.6754 11.0161 23.5366 10.7398 23.2604C10.186 22.7063 10.186 21.8111 10.7398 21.257L14.9971 17L10.7398 12.743C10.186 12.1889 10.186 11.2938 10.7398 10.7397C11.2939 10.1859 12.1891 10.1859 12.7432 10.7397L17.0002 14.9969L21.2572 10.7397C21.8113 10.1859 22.7064 10.1859 23.2605 10.7397C23.8143 11.2938 23.8143 12.1889 23.2605 12.743L19.0033 17L23.2605 21.257Z" fill="#FAFAFA"/>
</svg>
