<svg width="70" height="70" viewBox="0 0 70 70" fill="none" xmlns="http://www.w3.org/2000/svg">
<path d="M-7.62939e-06 35C-7.62939e-06 52.1208 13.9011 66 31.0489 66C53.2267 66 51.4525 51.3857 62.0978 35C72.2997 15.9571 48.1968 4 31.0489 4C5.76622 4 -7.62939e-06 17.8792 -7.62939e-06 35Z" fill="#111546" fill-opacity="0.1"/>
<path d="M49.5 28.1868H37.8333V27.3535C37.8284 23.2133 34.4735 19.8584 30.3333 19.8535H14.5C10.3598 19.8584 7.00488 23.2133 7 27.3535V37.3535C7.00488 41.4937 10.3598 44.8486 14.5 44.8535H15.3333V51.5202C15.3333 51.8571 15.5364 52.1611 15.8477 52.29C16.1589 52.419 16.5174 52.3474 16.7559 52.1094L24.0117 44.8535H26.1667V45.6868C26.1715 49.8271 29.5264 53.182 33.6667 53.1868H38.3216L47.2441 62.1094C47.4826 62.3474 47.8411 62.419 48.1523 62.29C48.4636 62.1611 48.6667 61.8571 48.6667 61.5202V53.1868H49.5C53.6402 53.182 56.9951 49.8271 57 45.6868V35.6868C56.9951 31.5466 53.6402 28.1917 49.5 28.1868ZM23.6667 43.1868C23.4457 43.1868 23.2337 43.2747 23.0775 43.431L17 49.5085V44.0202C17 43.56 16.6269 43.1868 16.1667 43.1868H14.5C11.2798 43.1832 8.67033 40.5737 8.66667 37.3535V27.3535C8.67033 24.1333 11.2798 21.5238 14.5 21.5202H30.3333C33.5535 21.5238 36.163 24.1333 36.1667 27.3535V28.1868H33.6667C29.5264 28.1917 26.1715 31.5466 26.1667 35.6868V43.1868H23.6667Z" fill="#111546"/>
<path d="M51.1667 34.8535H32C31.5398 34.8535 31.1667 35.2266 31.1667 35.6868C31.1667 36.1471 31.5398 36.5202 32 36.5202H51.1667C51.6269 36.5202 52 36.1471 52 35.6868C52 35.2266 51.6269 34.8535 51.1667 34.8535Z" fill="white"/>
<path d="M51.1667 39.8535H32C31.5398 39.8535 31.1667 40.2266 31.1667 40.6868C31.1667 41.147 31.5398 41.5202 32 41.5202H51.1667C51.6269 41.5202 52 41.147 52 40.6868C52 40.2266 51.6269 39.8535 51.1667 39.8535Z" fill="white"/>
<path d="M51.1667 44.8535H32C31.5398 44.8535 31.1667 45.2266 31.1667 45.6868C31.1667 46.1471 31.5398 46.5202 32 46.5202H51.1667C51.6269 46.5202 52 46.1471 52 45.6868C52 45.2266 51.6269 44.8535 51.1667 44.8535Z" fill="white"/>
<path d="M12 28.1882H29.5C29.9602 28.1882 30.3334 27.815 30.3334 27.3548C30.3334 26.8946 29.9602 26.5215 29.5 26.5215H12C11.5398 26.5215 11.1667 26.8946 11.1667 27.3548C11.1667 27.815 11.5398 28.1882 12 28.1882Z" fill="#111546"/>
<path d="M24.5 31.5215H12C11.5398 31.5215 11.1667 31.8946 11.1667 32.3548C11.1667 32.815 11.5398 33.1882 12 33.1882H24.5C24.9602 33.1882 25.3334 32.815 25.3334 32.3548C25.3334 31.8946 24.9602 31.5215 24.5 31.5215Z" fill="#111546"/>
<path d="M23.6667 36.5215H12C11.5398 36.5215 11.1667 36.8946 11.1667 37.3548C11.1667 37.815 11.5398 38.1882 12 38.1882H23.6667C24.1269 38.1882 24.5 37.815 24.5 37.3548C24.5 36.8946 24.1269 36.5215 23.6667 36.5215Z" fill="#111546"/>
</svg>
