<svg width="12" height="13" viewBox="0 0 12 13" fill="none" xmlns="http://www.w3.org/2000/svg" xmlns:xlink="http://www.w3.org/1999/xlink">
<path fill-rule="evenodd" clip-rule="evenodd" d="M6.00008 0.886719C2.78008 0.886719 0.166748 3.50995 0.166748 6.74215C0.166748 9.97435 2.78008 12.5976 6.00008 12.5976C9.22008 12.5976 11.8334 9.97435 11.8334 6.74215C11.8334 3.50995 9.22008 0.886719 6.00008 0.886719ZM4.83342 9.08433L2.79175 7.03492L3.61425 6.20931L4.83342 7.42724L7.85508 4.39998L8.67758 5.22559L4.83342 9.08433Z" fill="url(#pattern0)"/>
<path fill-rule="evenodd" clip-rule="evenodd" d="M6.00008 0.886719C2.78008 0.886719 0.166748 3.50995 0.166748 6.74215C0.166748 9.97435 2.78008 12.5976 6.00008 12.5976C9.22008 12.5976 11.8334 9.97435 11.8334 6.74215C11.8334 3.50995 9.22008 0.886719 6.00008 0.886719ZM4.83342 9.08433L2.79175 7.03492L3.61425 6.20931L4.83342 7.42724L7.85508 4.39998L8.67758 5.22559L4.83342 9.08433Z" fill="#FF0016"/>
</svg>
