<svg width="30" height="30" viewBox="0 0 30 30" fill="none" xmlns="http://www.w3.org/2000/svg">
<path d="M1.25 16.2241H28.75C29.44 16.2241 30 15.6641 30 14.9741C30 14.2841 29.44 13.7241 28.75 13.7241H1.25C0.559998 13.7241 0 14.2841 0 14.9741C0 15.6641 0.559998 16.2241 1.25 16.2241Z" fill="#111546"/>
<path d="M1.25 6.64063H28.75C29.44 6.64063 30 6.08063 30 5.39063C30 4.70062 29.44 4.14062 28.75 4.14062H1.25C0.559998 4.14062 0 4.70062 0 5.39063C0 6.08063 0.559998 6.64063 1.25 6.64063Z" fill="#111546"/>
<path d="M1.25 25.8072H28.75C29.44 25.8072 30 25.2472 30 24.5572C30 23.8672 29.44 23.3072 28.75 23.3072H1.25C0.559998 23.3072 0 23.8672 0 24.5572C0 25.2472 0.559998 25.8072 1.25 25.8072Z" fill="#111546"/>
</svg>
