<svg width="70" height="70" viewBox="0 0 70 70" fill="none" xmlns="http://www.w3.org/2000/svg">
<g clip-path="url(#clip0)">
<path d="M68.8538 46.5921C68.3076 46.3236 67.7788 45.9858 67.2818 45.5882C63.6008 42.6434 58.8825 42.1165 54.8285 44.0031L45.7356 34.91C50.0354 34.6597 53.457 31.0836 53.457 26.7224C53.457 22.1992 49.777 18.5194 45.254 18.5194C40.8925 18.5194 37.3166 21.941 37.0663 26.2407L31.3958 20.5702L39.3502 12.6156C41.7549 10.211 41.7553 6.32064 39.3502 3.91563C36.9516 1.51689 33.0488 1.51689 30.6502 3.91563L18.3457 16.2202C15.9409 18.6248 15.9405 22.5151 18.3457 24.9201L25.0985 31.6731L13.4673 43.3042C9.89728 42.3356 6.03894 43.0958 2.92339 45.5881C2.37679 46.0253 1.793 46.3892 1.18816 46.6699C0.160714 47.1466 -0.285673 48.3659 0.190929 49.3933C0.667667 50.4208 1.88679 50.8673 2.91437 50.3906C3.81726 49.9717 4.68241 49.4335 5.48564 48.7908C8.43999 46.4272 12.41 46.4271 15.3647 48.7908C19.8332 52.3657 25.7459 52.3793 30.2315 48.7908C33.1906 46.4235 37.0145 46.4235 39.9738 48.7908C44.4423 52.3657 50.355 52.3793 54.8406 48.7908C57.7949 46.4271 61.765 46.4272 64.7194 48.7908C65.4486 49.3743 66.2307 49.8729 67.0441 50.2727C68.0604 50.7726 69.2895 50.3535 69.7893 49.3373C70.289 48.3209 69.8702 47.0918 68.8538 46.5921ZM45.254 22.6209C47.5156 22.6209 49.3555 24.4609 49.3555 26.7225C49.3555 28.9841 47.5156 30.8241 45.254 30.8241C42.9924 30.8241 41.1524 28.9841 41.1524 26.7225C41.1524 24.4609 42.9924 22.6209 45.254 22.6209ZM42.536 45.5882C40.3404 43.8318 37.7701 42.9034 35.1026 42.9034C32.4351 42.9034 29.8648 43.8318 27.6692 45.5882C24.7099 47.9555 20.886 47.9555 17.9269 45.5882C17.7503 45.4468 17.5703 45.3131 17.3891 45.1828L29.4487 33.1231C30.2496 32.3222 30.2496 31.0238 29.4487 30.2229L21.2458 22.0199C20.444 21.2181 20.4438 19.9222 21.2458 19.1203L33.5503 6.8157C34.3523 6.01385 35.648 6.01385 36.45 6.8157C37.2518 7.61756 37.252 8.91324 36.45 9.71537L27.0454 19.12C26.2445 19.9209 26.2445 21.2193 27.0454 22.0202L51.2941 46.2689C48.5051 47.9263 45.1765 47.7006 42.536 45.5882Z" fill="#111546"/>
<path opacity="0.2" d="M0 65.3333V49L10.5 45.5L23.3333 50.1667L35 45.5L47.8333 50.1667L59.5 45.5L70 49V65.3333L59.5 61.8333L46.6667 66.5L35 61.8333L23.3333 66.5L10.5 61.8333L0 65.3333Z" fill="#111546"/>
<path d="M67.2818 45.5882C67.7788 45.9858 68.3076 46.3236 68.8538 46.5921C69.8702 47.0918 70.289 48.3209 69.7893 49.3373C69.2895 50.3535 68.0604 50.7726 67.0441 50.2727C66.2307 49.873 65.4486 49.3743 64.7194 48.7908C61.765 46.4272 57.7949 46.4271 54.8406 48.7908C50.3549 52.3793 44.4423 52.3657 39.9738 48.7908C37.0145 46.4235 33.1906 46.4235 30.2315 48.7908C25.7458 52.3793 19.8332 52.3657 15.3647 48.7908C12.41 46.4271 8.43999 46.4272 5.48564 48.7908C4.68241 49.4335 3.81726 49.9717 2.91437 50.3906C1.88679 50.8673 0.667667 50.4208 0.190929 49.3933C-0.285673 48.3659 0.160714 47.1466 1.18816 46.6699C1.793 46.3892 2.37679 46.0253 2.92339 45.5881C6.03894 43.0958 9.89728 42.3356 13.4673 43.3042L25.0985 31.6731L18.3457 24.9201C15.9405 22.5151 15.9409 18.6248 18.3457 16.2202L30.6502 3.91562C33.0488 1.51689 36.9516 1.51689 39.3502 3.91562C41.7553 6.32064 41.7549 10.211 39.3502 12.6156L31.3958 20.5702L37.0663 26.2407C37.3166 21.941 40.8925 18.5194 45.254 18.5194C49.777 18.5194 53.457 22.1992 53.457 26.7224C53.457 31.0836 50.0354 34.6597 45.7356 34.91L54.8285 44.0031C58.8825 42.1165 63.6008 42.6434 67.2818 45.5882Z" fill="#111546"/>
<path d="M68.8537 54.7952C68.3075 54.5267 67.7787 54.1888 67.2817 53.7913C62.7946 50.2016 56.7651 50.2017 52.2783 53.7913C49.319 56.1585 45.4951 56.1585 42.536 53.7913C40.3404 52.0348 37.7701 51.1065 35.1026 51.1065C32.4351 51.1065 29.8648 52.0348 27.6692 53.7913C24.7099 56.1585 20.886 56.1585 17.9269 53.7913C13.4399 50.2016 7.41063 50.2016 2.92339 53.7913C2.37679 54.2285 1.793 54.5924 1.18816 54.8731C0.160714 55.3498 -0.285673 56.5691 0.190929 57.5965C0.667667 58.624 1.88679 59.0705 2.91437 58.5938C3.81726 58.1749 4.68241 57.6367 5.48564 56.994C8.43999 54.6304 12.41 54.6304 15.3647 56.994C19.8332 60.5689 25.7458 60.5825 30.2315 56.994C33.1906 54.6267 37.0145 54.6267 39.9738 56.994C44.4423 60.5689 50.3549 60.5825 54.8406 56.994C57.7949 54.6304 61.7649 54.6304 64.7194 56.994C65.4486 57.5775 66.2307 58.0762 67.0441 58.4759C68.0604 58.9758 69.2895 58.5567 69.7892 57.5405C70.2888 56.524 69.87 55.2949 68.8537 54.7952Z" fill="#111546"/>
<path d="M68.8537 62.9982C68.3075 62.7297 67.7787 62.3919 67.2817 61.9943C62.7946 58.4046 56.7651 58.4047 52.2783 61.9943C49.319 64.3616 45.4951 64.3616 42.536 61.9943C40.3404 60.2379 37.7701 59.3095 35.1026 59.3095C32.4351 59.3095 29.8648 60.2379 27.6692 61.9943C24.7099 64.3616 20.886 64.3616 17.9269 61.9943C13.4399 58.4046 7.41063 58.4047 2.92339 61.9943C2.37679 62.4315 1.793 62.7955 1.18816 63.0762C0.160714 63.5529 -0.285673 64.7722 0.190929 65.7996C0.667667 66.8271 1.88679 67.2736 2.91437 66.7968C3.81726 66.3779 4.68241 65.8398 5.48564 65.1971C8.43999 62.8335 12.41 62.8333 15.3647 65.1971C19.8332 68.772 25.7458 68.7856 30.2315 65.1971C33.1906 62.8298 37.0145 62.8298 39.9738 65.1971C44.4423 68.772 50.3549 68.7856 54.8406 65.1971C57.7949 62.8335 61.7649 62.8335 64.7194 65.1971C65.4486 65.7806 66.2307 66.2792 67.0441 66.679C68.0604 67.1788 69.2895 66.7598 69.7892 65.7436C70.2888 64.727 69.87 63.4979 68.8537 62.9982Z" fill="#111546"/>
</g>
<defs>
<clipPath id="clip0">
<rect width="70" height="70" fill="white"/>
</clipPath>
</defs>
</svg>
