<svg width="18" height="15" viewBox="0 0 18 15" fill="none" xmlns="http://www.w3.org/2000/svg">
<path d="M0.00382682 10.867C0.00382682 13.1497 1.92204 15 4.28837 15C6.65475 15 8.57296 13.1497 8.57296 10.867C8.57296 8.58436 6.65475 6.73406 4.28837 6.73406C3.80206 6.73406 3.33653 6.81583 2.90073 6.95995C3.86494 1.62563 8.17726 -1.8144 4.17975 1.01681C-0.252884 4.15631 -0.000920523 10.7407 0.00403939 10.8614C0.00403939 10.8632 0.00382682 10.8649 0.00382682 10.867Z" fill="#111546"/>
<path d="M9.43078 10.8663C9.43078 13.1489 11.349 14.9993 13.7154 14.9993C16.0817 14.9993 17.9999 13.1489 17.9999 10.8663C17.9999 8.58363 16.0817 6.73332 13.7153 6.73332C13.229 6.73332 12.7635 6.8151 12.3277 6.95922C13.2919 1.6249 17.6042 -1.81513 13.6067 1.01608C9.17407 4.15558 9.42599 10.74 9.43099 10.8606C9.43099 10.8625 9.43078 10.8642 9.43078 10.8663Z" fill="#111546"/>
</svg>
