<svg width="15" height="16" viewBox="0 0 15 16" fill="none" xmlns="http://www.w3.org/2000/svg" xmlns:xlink="http://www.w3.org/1999/xlink">
<path fill-rule="evenodd" clip-rule="evenodd" d="M15 7.65453C15 3.51953 11.6421 0.16745 7.5 0.16745C3.35786 0.16745 0 3.51953 0 7.65453C0 11.7895 3.35786 15.1416 7.5 15.1416C11.6421 15.1416 15 11.7895 15 7.65453ZM6.24996 10.1143L8.30163 7.96641L6.24996 5.81855L6.88159 5.15875L9.56937 7.96641L6.88159 10.7741L6.24996 10.1143Z" fill="url(#pattern0)"/>
<path fill-rule="evenodd" clip-rule="evenodd" d="M15 7.65453C15 3.51953 11.6421 0.16745 7.5 0.16745C3.35786 0.16745 0 3.51953 0 7.65453C0 11.7895 3.35786 15.1416 7.5 15.1416C11.6421 15.1416 15 11.7895 15 7.65453ZM6.24996 10.1143L8.30163 7.96641L6.24996 5.81855L6.88159 5.15875L9.56937 7.96641L6.88159 10.7741L6.24996 10.1143Z" fill="#111546"/>
</svg>
