<svg width="40" height="26" viewBox="0 0 40 26" fill="none" xmlns="http://www.w3.org/2000/svg">
<path d="M39.2844 10.881L28.9478 0.468773C28.4703 -0.0122147 27.6952 -0.0122147 27.2177 0.468773C26.7402 0.949761 26.7402 1.73049 27.2177 2.21148L36.3312 11.3916L1.22315 11.3916C0.547565 11.3916 1.04615e-06 11.9432 1.02038e-06 12.6237C-0.000431514 12.964 0.136676 13.272 0.358123 13.4951C0.579571 13.7182 0.885357 13.8563 1.22315 13.8558L36.3312 13.8558L27.2177 23.036C26.7402 23.517 26.7402 24.2977 27.2177 24.7787C27.6952 25.2597 28.4703 25.2597 28.9477 24.7787L39.2844 14.3664C40.2385 13.4053 40.2385 11.8421 39.2844 10.881Z" fill="#111546"/>
</svg>
