<svg width="24" height="25" viewBox="0 0 24 25" fill="none" xmlns="http://www.w3.org/2000/svg" xmlns:xlink="http://www.w3.org/1999/xlink">
<path fill-rule="evenodd" clip-rule="evenodd" d="M12 2.52744C15.204 2.52744 15.584 2.53941 16.85 2.59726C20.102 2.74487 21.621 4.28382 21.769 7.50335C21.827 8.76503 21.838 9.14403 21.838 12.3396C21.838 15.5362 21.826 15.9142 21.769 17.1759C21.62 20.3924 20.105 21.9344 16.85 22.082C15.584 22.1398 15.206 22.1518 12 22.1518C8.796 22.1518 8.416 22.1398 7.151 22.082C3.891 21.9334 2.38 20.3874 2.232 17.1749C2.174 15.9132 2.162 15.5352 2.162 12.3386C2.162 9.14303 2.175 8.76503 2.232 7.50235C2.381 4.28382 3.896 2.74387 7.151 2.59626C8.417 2.53941 8.796 2.52744 12 2.52744ZM12 0.370117C8.741 0.370117 8.333 0.38408 7.053 0.441928C2.695 0.641403 0.273 3.05306 0.073 7.40361C0.014 8.68125 0 9.08817 0 12.3386C0 15.5891 0.014 15.997 0.072 17.2736C0.272 21.6202 2.69 24.0358 7.052 24.2353C8.333 24.2932 8.741 24.3071 12 24.3071C15.259 24.3071 15.668 24.2932 16.948 24.2353C21.302 24.0358 23.73 21.6242 23.927 17.2736C23.986 15.997 24 15.5891 24 12.3386C24 9.08817 23.986 8.68125 23.928 7.40461C23.732 3.06203 21.311 0.642401 16.949 0.442926C15.668 0.38408 15.259 0.370117 12 0.370117ZM12 6.19279C8.597 6.19279 5.838 8.94455 5.838 12.3386C5.838 15.7327 8.597 18.4854 12 18.4854C15.403 18.4854 18.162 15.7337 18.162 12.3386C18.162 8.94455 15.403 6.19279 12 6.19279ZM12 16.3281C9.791 16.3281 8 14.5428 8 12.3386C8 10.1354 9.791 8.34912 12 8.34912C14.209 8.34912 16 10.1354 16 12.3386C16 14.5428 14.209 16.3281 12 16.3281ZM18.406 4.51421C17.61 4.51421 16.965 5.15752 16.965 5.95043C16.965 6.74334 17.61 7.38665 18.406 7.38665C19.201 7.38665 19.845 6.74334 19.845 5.95043C19.845 5.15752 19.201 4.51421 18.406 4.51421Z" fill="url(#pattern0)"/>
<path fill-rule="evenodd" clip-rule="evenodd" d="M12 2.52744C15.204 2.52744 15.584 2.53941 16.85 2.59726C20.102 2.74487 21.621 4.28382 21.769 7.50335C21.827 8.76503 21.838 9.14403 21.838 12.3396C21.838 15.5362 21.826 15.9142 21.769 17.1759C21.62 20.3924 20.105 21.9344 16.85 22.082C15.584 22.1398 15.206 22.1518 12 22.1518C8.796 22.1518 8.416 22.1398 7.151 22.082C3.891 21.9334 2.38 20.3874 2.232 17.1749C2.174 15.9132 2.162 15.5352 2.162 12.3386C2.162 9.14303 2.175 8.76503 2.232 7.50235C2.381 4.28382 3.896 2.74387 7.151 2.59626C8.417 2.53941 8.796 2.52744 12 2.52744ZM12 0.370117C8.741 0.370117 8.333 0.38408 7.053 0.441928C2.695 0.641403 0.273 3.05306 0.073 7.40361C0.014 8.68125 0 9.08817 0 12.3386C0 15.5891 0.014 15.997 0.072 17.2736C0.272 21.6202 2.69 24.0358 7.052 24.2353C8.333 24.2932 8.741 24.3071 12 24.3071C15.259 24.3071 15.668 24.2932 16.948 24.2353C21.302 24.0358 23.73 21.6242 23.927 17.2736C23.986 15.997 24 15.5891 24 12.3386C24 9.08817 23.986 8.68125 23.928 7.40461C23.732 3.06203 21.311 0.642401 16.949 0.442926C15.668 0.38408 15.259 0.370117 12 0.370117ZM12 6.19279C8.597 6.19279 5.838 8.94455 5.838 12.3386C5.838 15.7327 8.597 18.4854 12 18.4854C15.403 18.4854 18.162 15.7337 18.162 12.3386C18.162 8.94455 15.403 6.19279 12 6.19279ZM12 16.3281C9.791 16.3281 8 14.5428 8 12.3386C8 10.1354 9.791 8.34912 12 8.34912C14.209 8.34912 16 10.1354 16 12.3386C16 14.5428 14.209 16.3281 12 16.3281ZM18.406 4.51421C17.61 4.51421 16.965 5.15752 16.965 5.95043C16.965 6.74334 17.61 7.38665 18.406 7.38665C19.201 7.38665 19.845 6.74334 19.845 5.95043C19.845 5.15752 19.201 4.51421 18.406 4.51421Z" fill="#111546"/>
</svg>
