<svg width="32" height="32" viewBox="0 0 32 32" fill="none" xmlns="http://www.w3.org/2000/svg">
<g clip-path="url(#clip0)">
<path d="M15.84 0.0449219H15.8321C7.10051 0.0449219 0 7.15689 0 15.9021C0 19.3709 1.11644 22.586 3.0148 25.1965L1.04122 31.0874L7.12822 29.139C9.6323 30.8 12.6194 31.7594 15.84 31.7594C24.5717 31.7594 31.6722 24.6454 31.6722 15.9021C31.6722 7.15887 24.5717 0.0449219 15.84 0.0449219Z" fill="#4CAF50"/>
<path d="M25.0551 22.4375C24.6731 23.5178 23.1568 24.4137 21.9473 24.6754C21.1198 24.8518 20.039 24.9925 16.4007 23.4821C11.7468 21.5515 8.74986 16.8161 8.51628 16.5089C8.29259 16.2017 6.63574 14.0015 6.63574 11.726C6.63574 9.45047 7.7898 8.34245 8.25498 7.86673C8.63703 7.47625 9.26849 7.29785 9.87422 7.29785C10.0702 7.29785 10.2464 7.30776 10.4047 7.31569C10.8699 7.33551 11.1035 7.36326 11.4103 8.09864C11.7924 9.02034 12.7227 11.2959 12.8336 11.5297C12.9464 11.7636 13.0593 12.0808 12.9009 12.388C12.7524 12.7052 12.6218 12.8459 12.3882 13.1155C12.1546 13.385 11.9329 13.5912 11.6993 13.8806C11.4855 14.1323 11.244 14.4019 11.5133 14.8677C11.7825 15.3236 12.7128 16.8439 14.0827 18.0649C15.8504 19.6407 17.2835 20.1442 17.7962 20.3583C18.1783 20.5168 18.6336 20.4792 18.9127 20.1818C19.267 19.7993 19.7045 19.165 20.1499 18.5406C20.4666 18.0927 20.8665 18.0372 21.2861 18.1957C21.7137 18.3444 23.9763 19.4643 24.4415 19.6962C24.9066 19.9301 25.2135 20.0411 25.3263 20.2373C25.4371 20.4336 25.4371 21.3553 25.0551 22.4375Z" fill="#FAFAFA"/>
</g>
<defs>
<clipPath id="clip0">
<rect width="31.6722" height="31.7144" fill="white" transform="translate(0 0.0449219)"/>
</clipPath>
</defs>
</svg>
