<svg width="33" height="32" viewBox="0 0 33 32" fill="none" xmlns="http://www.w3.org/2000/svg">
<g clip-path="url(#clip0)">
<path d="M16.8107 31.7584C25.5567 31.7584 32.6468 24.6589 32.6468 15.9012C32.6468 7.14347 25.5567 0.0439453 16.8107 0.0439453C8.06467 0.0439453 0.974609 7.14347 0.974609 15.9012C0.974609 24.6589 8.06467 31.7584 16.8107 31.7584Z" fill="#6F3FAA"/>
<path d="M25.1881 11.1884L25.1829 11.1675C24.7598 9.45457 22.8522 7.61661 21.1003 7.23425L21.0806 7.23016C18.247 6.68891 15.3739 6.68891 12.541 7.23016L12.5206 7.23425C10.7694 7.61661 8.86171 9.45469 8.43803 11.1675L8.43333 11.1884C7.91024 13.5804 7.91024 16.0063 8.43333 18.3983L8.43803 18.4193C8.84371 20.059 10.6092 21.8126 12.2957 22.2948V24.2069C12.2957 24.8989 13.1379 25.2388 13.6169 24.7394L15.5515 22.7257C15.9712 22.7492 16.391 22.7623 16.8107 22.7623C18.237 22.7623 19.664 22.6272 21.0805 22.3566L21.1002 22.3526C22.8521 21.9702 24.7597 20.1321 25.1828 18.4193L25.188 18.3984C25.7111 16.0063 25.7111 13.5805 25.1881 11.1884ZM23.657 18.0515C23.3745 19.169 21.9261 20.5583 20.7753 20.815C19.2687 21.1019 17.7501 21.2245 16.233 21.1824C16.2029 21.1815 16.1738 21.1933 16.1529 21.215C15.9375 21.4362 14.7403 22.667 14.7403 22.667L13.2379 24.2111C13.128 24.3259 12.935 24.2477 12.935 24.0895V20.922C12.935 20.8697 12.8977 20.8252 12.8463 20.8151C12.846 20.815 12.8458 20.815 12.8455 20.8149C11.6946 20.5582 10.2467 19.169 9.96374 18.0515C9.49293 15.8893 9.49293 13.6974 9.96374 11.5353C10.2467 10.4178 11.6946 9.02853 12.8455 8.77184C15.4767 8.27073 18.1446 8.27073 20.7753 8.77184C21.9267 9.02853 23.3746 10.4178 23.6571 11.5353C24.1284 13.6975 24.1284 15.8894 23.657 18.0515Z" fill="white"/>
<path d="M19.3144 19.5133C19.1375 19.4595 18.969 19.4234 18.8123 19.3584C17.1896 18.6843 15.6963 17.8146 14.5135 16.4815C13.8408 15.7235 13.3144 14.8676 12.8693 13.9619C12.6583 13.5324 12.4804 13.0861 12.2991 12.6426C12.1338 12.2382 12.3773 11.8205 12.6337 11.5157C12.8742 11.2298 13.1838 11.011 13.5191 10.8496C13.7808 10.7238 14.0389 10.7963 14.23 11.0184C14.6431 11.4986 15.0227 12.0033 15.3299 12.5599C15.5189 12.9023 15.467 13.3207 15.1245 13.5537C15.0412 13.6103 14.9654 13.6768 14.8879 13.7408C14.8198 13.7968 14.7559 13.8534 14.7092 13.9293C14.6241 14.0681 14.62 14.232 14.6748 14.3829C15.0971 15.545 15.8089 16.4488 16.9771 16.9356C17.1641 17.0134 17.3518 17.1041 17.5672 17.079C17.9278 17.0368 18.0446 16.6406 18.2973 16.4337C18.5444 16.2314 18.8601 16.2288 19.1261 16.3974C19.3923 16.5661 19.6503 16.7471 19.9068 16.9301C20.1585 17.1098 20.4091 17.2854 20.6413 17.4902C20.8646 17.6871 20.9415 17.9454 20.8157 18.2126C20.5856 18.702 20.2506 19.109 19.7676 19.3689C19.6312 19.4421 19.4682 19.4659 19.3144 19.5133C19.1375 19.4595 19.4682 19.4659 19.3144 19.5133Z" fill="white"/>
<path d="M16.8141 10.2899C18.9365 10.3495 20.6797 11.7599 21.0533 13.8609C21.117 14.219 21.1396 14.5849 21.1679 14.9483C21.1799 15.1012 21.0934 15.2464 20.9287 15.2484C20.7586 15.2504 20.6821 15.1078 20.671 14.9552C20.6491 14.6528 20.634 14.3489 20.5923 14.0491C20.3727 12.4659 19.112 11.1562 17.5383 10.8751C17.3014 10.8328 17.0592 10.8217 16.8192 10.7965C16.6676 10.7806 16.469 10.7714 16.4354 10.5826C16.4073 10.4244 16.5406 10.2984 16.6911 10.2903C16.7319 10.2879 16.7731 10.2898 16.8141 10.2899C18.9366 10.3495 16.7731 10.2898 16.8141 10.2899Z" fill="white"/>
<path d="M20.0414 14.4774C20.0379 14.504 20.0361 14.5664 20.0205 14.6251C19.9642 14.8384 19.641 14.8651 19.5666 14.6499C19.5446 14.586 19.5413 14.5133 19.5412 14.4446C19.5404 13.9945 19.4427 13.5448 19.2159 13.1531C18.9828 12.7506 18.6266 12.4123 18.209 12.2074C17.9564 12.0837 17.6834 12.0067 17.4065 11.9609C17.2856 11.9408 17.1633 11.9288 17.0417 11.9118C16.8944 11.8913 16.8156 11.7973 16.8227 11.652C16.8292 11.5159 16.9286 11.4178 17.0769 11.4263C17.5641 11.4539 18.0347 11.5595 18.4679 11.789C19.3487 12.256 19.8519 12.993 19.9988 13.9772C20.0054 14.0219 20.0161 14.066 20.0195 14.1107C20.0278 14.2211 20.033 14.3316 20.0414 14.4774C20.0379 14.5039 20.033 14.3316 20.0414 14.4774Z" fill="white"/>
<path d="M18.7197 14.4268C18.5421 14.4301 18.4471 14.3316 18.4287 14.1687C18.416 14.0551 18.4058 13.9398 18.3787 13.8292C18.3254 13.6114 18.2098 13.4096 18.0267 13.2761C17.9403 13.2131 17.8424 13.1672 17.7398 13.1375C17.6096 13.0997 17.4742 13.1101 17.3443 13.0783C17.2032 13.0437 17.1251 12.9292 17.1473 12.7967C17.1675 12.676 17.2847 12.5819 17.4164 12.5915C18.2395 12.651 18.8278 13.0769 18.9118 14.0469C18.9178 14.1154 18.9247 14.1877 18.9095 14.2533C18.8834 14.3652 18.8005 14.4214 18.7197 14.4268C18.542 14.43 18.8005 14.4214 18.7197 14.4268Z" fill="white"/>
<path d="M25.1884 11.1891L25.1832 11.1682C24.9461 10.208 24.2422 9.20865 23.361 8.44824L22.1696 9.50547C22.878 10.0707 23.485 10.8537 23.6575 11.5359C24.1288 13.6982 24.1288 15.89 23.6575 18.0523C23.375 19.1698 21.9265 20.559 20.7757 20.8157C19.2691 21.1026 17.7505 21.2252 16.2335 21.1831C16.2033 21.1823 16.1743 21.194 16.1533 21.2157C15.938 21.437 14.7408 22.6678 14.7408 22.6678L13.2383 24.2119C13.1284 24.3266 12.9354 24.2486 12.9354 24.0902V20.9227C12.9354 20.8704 12.8981 20.826 12.8468 20.8158C12.8465 20.8158 12.8462 20.8157 12.8459 20.8157C12.1919 20.6698 11.4422 20.158 10.8647 19.5384L9.6875 20.5829C10.4227 21.3838 11.371 22.0312 12.296 22.2957V24.2077C12.296 24.8998 13.1382 25.2397 13.6171 24.7402L15.5518 22.7266C15.9715 22.75 16.3912 22.7632 16.811 22.7632C18.2373 22.7632 19.6643 22.6281 21.0808 22.3575L21.1005 22.3535C22.8524 21.9711 24.76 20.1332 25.1831 18.4203L25.1883 18.3993C25.7115 16.0071 25.7115 13.5813 25.1884 11.1891Z" fill="#D1D1D1"/>
<path d="M19.314 19.5149C19.4695 19.467 19.1351 19.4606 19.314 19.5149V19.5149Z" fill="white"/>
<path d="M20.6412 17.4906C20.409 17.2859 20.1583 17.1102 19.9066 16.9306C19.6502 16.7475 19.3922 16.5665 19.126 16.3978C18.86 16.2292 18.5443 16.2318 18.2972 16.4341C18.0445 16.641 17.9277 17.0372 17.567 17.0794C17.3517 17.1045 17.164 17.0138 16.977 16.936C16.2583 16.6366 15.7129 16.1787 15.3007 15.6006L14.4248 16.378C14.4546 16.4125 14.483 16.4479 14.5132 16.482C15.6961 17.815 17.1894 18.6847 18.812 19.3588C18.9685 19.4239 19.1372 19.46 19.3141 19.5137C19.1372 19.4599 19.4681 19.4663 19.3141 19.5137C19.4681 19.4663 19.6309 19.4425 19.7674 19.3693C20.2506 19.1094 20.5854 18.7023 20.8155 18.2129C20.9414 17.9458 20.8645 17.6875 20.6412 17.4906Z" fill="#D1D1D1"/>
<path d="M16.8145 10.291C16.8162 10.291 16.818 10.2912 16.8198 10.2912C16.9373 10.2954 18.8498 10.3481 16.8145 10.291Z" fill="white"/>
<path d="M19.8579 11.5547L19.4844 11.8861C20.0714 12.4579 20.4762 13.2156 20.5919 14.0495C20.6335 14.3494 20.6488 14.6531 20.6707 14.9555C20.6817 15.1083 20.7582 15.2509 20.9285 15.2489C21.0933 15.2468 21.1797 15.1017 21.1678 14.9488C21.1394 14.5855 21.1168 14.2194 21.0531 13.8614C20.8896 12.9417 20.4634 12.1544 19.8579 11.5547Z" fill="#D1D1D1"/>
<path d="M19.9979 13.9748C19.8909 13.2577 19.5937 12.6724 19.1 12.2266L18.7275 12.557C18.9202 12.7282 19.0868 12.9292 19.2151 13.1509C19.4419 13.5425 19.5396 13.9922 19.5404 14.4423C19.5405 14.5111 19.5438 14.5838 19.5659 14.6478C19.6403 14.8631 19.9634 14.8364 20.0197 14.623C20.0353 14.5641 20.0371 14.5018 20.0407 14.4753C20.0371 14.5019 20.0321 14.3296 20.0407 14.4753C20.0321 14.3296 20.0269 14.2189 20.0186 14.1084C20.0153 14.0635 20.0046 14.0194 19.9979 13.9748Z" fill="#D1D1D1"/>
<path d="M20.0409 14.4782C20.0323 14.3301 20.0373 14.5051 20.0409 14.4782V14.4782Z" fill="white"/>
<path d="M18.7142 14.4252C18.7161 14.425 18.718 14.424 18.7199 14.4238C18.7146 14.4238 18.7065 14.424 18.6982 14.4243C18.7036 14.4244 18.7085 14.4252 18.7142 14.4252Z" fill="white"/>
<path d="M18.7211 14.4252C18.713 14.4253 18.7058 14.4241 18.698 14.4238C18.6589 14.4249 18.6186 14.427 18.7211 14.4252Z" fill="white"/>
<path d="M18.7266 14.4238C18.7249 14.424 18.7233 14.4249 18.7217 14.425C18.7343 14.4241 18.7332 14.4238 18.7266 14.4238Z" fill="white"/>
<path d="M18.347 12.8984L17.9678 13.2349C17.9887 13.2476 18.0092 13.2609 18.029 13.2753C18.2121 13.4088 18.3277 13.6106 18.3811 13.8284C18.4082 13.9391 18.4182 14.0542 18.431 14.1679C18.4485 14.3235 18.5368 14.4193 18.6993 14.4248C18.7111 14.4245 18.7228 14.4243 18.7301 14.4242C18.8084 14.4155 18.8868 14.3607 18.9118 14.2524C18.927 14.1869 18.92 14.1145 18.914 14.046C18.8669 13.5037 18.6621 13.1317 18.347 12.8984Z" fill="#D1D1D1"/>
</g>
<defs>
<clipPath id="clip0">
<rect width="31.6722" height="31.7144" fill="white" transform="translate(0.974609 0.0439453)"/>
</clipPath>
</defs>
</svg>
