<svg width="25" height="25" viewBox="0 0 25 25" fill="none" xmlns="http://www.w3.org/2000/svg">
<path fill-rule="evenodd" clip-rule="evenodd" d="M12.5006 2.25344C15.8381 2.25344 16.2339 2.26594 17.5527 2.32636C20.9402 2.48052 22.5225 4.08782 22.6766 7.45032C22.737 8.76802 22.7485 9.16386 22.7485 12.5014C22.7485 15.8399 22.736 16.2347 22.6766 17.5524C22.5214 20.9118 20.9433 22.5222 17.5527 22.6764C16.2339 22.7368 15.8402 22.7493 12.5006 22.7493C9.16308 22.7493 8.76725 22.7368 7.44954 22.6764C4.0537 22.5212 2.47975 20.9066 2.32558 17.5514C2.26516 16.2337 2.25266 15.8389 2.25266 12.5003C2.25266 9.16282 2.2662 8.76802 2.32558 7.44927C2.48079 4.08782 4.05891 2.47948 7.44954 2.32532C8.76829 2.26594 9.16308 2.25344 12.5006 2.25344ZM12.5 0C9.10521 0 8.68021 0.0145833 7.34687 0.075C2.80729 0.283333 0.284375 2.80208 0.0760417 7.34583C0.0145833 8.68021 0 9.10521 0 12.5C0 15.8948 0.0145833 16.3208 0.075 17.6542C0.283333 22.1937 2.80208 24.7167 7.34583 24.925C8.68021 24.9854 9.10521 25 12.5 25C15.8948 25 16.3208 24.9854 17.6542 24.925C22.1896 24.7167 24.7188 22.1979 24.924 17.6542C24.9854 16.3208 25 15.8948 25 12.5C25 9.10521 24.9854 8.68021 24.925 7.34687C24.7208 2.81146 22.199 0.284375 17.6552 0.0760417C16.3208 0.0145833 15.8948 0 12.5 0ZM12.5 6.08088C8.95524 6.08088 6.08128 8.95484 6.08128 12.4996C6.08128 16.0444 8.95524 18.9194 12.5 18.9194C16.0448 18.9194 18.9188 16.0455 18.9188 12.4996C18.9188 8.95484 16.0448 6.08088 12.5 6.08088ZM12.5003 16.667C10.1993 16.667 8.33363 14.8024 8.33363 12.5003C8.33363 10.1993 10.1993 8.33368 12.5003 8.33368C14.8013 8.33368 16.667 10.1993 16.667 12.5003C16.667 14.8024 14.8013 16.667 12.5003 16.667ZM19.1737 4.32841C18.3443 4.32841 17.6722 5.00029 17.6722 5.82841C17.6722 6.65654 18.3443 7.32842 19.1737 7.32842C20.0021 7.32842 20.6731 6.65654 20.6731 5.82841C20.6731 5.00029 20.0021 4.32841 19.1737 4.32841Z" fill="white"/>
</svg>
