<svg width="24" height="24" viewBox="0 0 24 24" fill="none" xmlns="http://www.w3.org/2000/svg">
<path fill-rule="evenodd" clip-rule="evenodd" d="M20.5023 3.48779C18.2462 1.23984 15.2457 0.00131836 12.0492 0C5.46254 0 0.101924 5.33481 0.0992742 11.8917C0.0983911 13.9878 0.648582 16.0339 1.69436 17.8374L-0.000961304 24L6.33389 22.3462C8.0794 23.2938 10.0445 23.7932 12.0444 23.7938H12.0494C18.6353 23.7938 23.9965 18.4585 23.999 11.9013C24.0004 8.72344 22.7585 5.7356 20.5023 3.48779ZM12.0492 21.7853H12.0451C10.2629 21.7846 8.51508 21.3079 6.98991 20.4075L6.62739 20.1932L2.86819 21.1746L3.87157 17.527L3.63534 17.153C2.64108 15.5792 2.11605 13.7602 2.11694 11.8925C2.119 6.44253 6.57469 2.00859 12.0532 2.00859C14.7061 2.00947 17.2 3.03896 19.0751 4.90737C20.9503 6.77578 21.9824 9.25928 21.9815 11.9005C21.9792 17.3509 17.5238 21.7853 12.0492 21.7853ZM17.4973 14.3821C17.1988 14.2333 15.7307 13.5146 15.4569 13.4153C15.1835 13.3162 14.9842 13.2668 14.7853 13.5642C14.5862 13.8615 14.0141 14.531 13.8398 14.7292C13.6655 14.9275 13.4915 14.9524 13.1929 14.8036C12.8942 14.6549 11.9322 14.341 10.7916 13.3286C9.9041 12.5407 9.3049 11.5676 9.13062 11.2702C8.95665 10.9726 9.12915 10.8272 9.26162 10.6638C9.58485 10.2643 9.90852 9.84551 10.008 9.64732C10.1077 9.44897 10.0578 9.27539 9.983 9.12671C9.90852 8.97803 9.31137 7.51538 9.06262 6.92022C8.82006 6.34102 8.57411 6.41924 8.39071 6.41016C8.21673 6.40151 8.01758 6.39976 7.81844 6.39976C7.61944 6.39976 7.29592 6.47402 7.02215 6.77168C6.74852 7.06919 5.97725 7.78799 5.97725 9.25064C5.97725 10.7133 7.04717 12.1263 7.19642 12.3246C7.34567 12.523 9.30195 15.5244 12.2971 16.8114C13.0095 17.1179 13.5656 17.3005 13.9993 17.4375C14.7147 17.6637 15.3654 17.6317 15.88 17.5553C16.4537 17.4699 17.6464 16.8363 17.8954 16.1423C18.1442 15.4481 18.1442 14.8532 18.0694 14.7292C17.9949 14.6052 17.7958 14.531 17.4973 14.3821Z" fill="white"/>
</svg>
