<svg width="25" height="18" viewBox="0 0 25 18" fill="none" xmlns="http://www.w3.org/2000/svg">
<path d="M24.4849 2.73896C24.1968 1.66794 23.3524 0.823671 22.2815 0.535279C20.3252 0 12.4997 0 12.4997 0C12.4997 0 4.67454 0 2.71821 0.514985C1.66794 0.803072 0.802919 1.66809 0.514833 2.73896C0 4.69514 0 8.752 0 8.752C0 8.752 0 12.8293 0.514833 14.765C0.803224 15.8359 1.64734 16.6802 2.71836 16.9686C4.69514 17.504 12.5 17.504 12.5 17.504C12.5 17.504 20.3252 17.504 22.2815 16.989C23.3526 16.7008 24.1968 15.8565 24.4852 14.7856C24.9999 12.8293 24.9999 8.7726 24.9999 8.7726C24.9999 8.7726 25.0205 4.69514 24.4849 2.73896ZM10.0083 12.4999V5.00413L16.5155 8.752L10.0083 12.4999Z" fill="white"/>
</svg>
