<svg width="40" height="40" viewBox="0 0 40 40" fill="none" xmlns="http://www.w3.org/2000/svg">
<g clip-path="url(#clip0)">
<path d="M37.3405 20.518C37.1796 20.1887 37.1796 19.811 37.3405 19.4818L38.8324 16.4299C39.663 14.7306 39.0049 12.7052 37.3341 11.8187L34.3334 10.2266C34.0096 10.0548 33.7877 9.74922 33.7243 9.38836L33.1374 6.04237C32.8106 4.17941 31.0874 2.92754 29.2149 3.19246L25.8515 3.66824C25.4884 3.71949 25.1294 3.60277 24.8661 3.34801L22.4246 0.986147C21.0652 -0.329002 18.9355 -0.32908 17.5761 0.986147L15.1346 3.34824C14.8711 3.60308 14.5121 3.71957 14.1492 3.66847L10.7857 3.1927C8.91265 2.92762 7.19 4.17964 6.86321 6.0426L6.27634 9.38844C6.21298 9.74938 5.99102 10.0549 5.66735 10.2267L2.66659 11.8189C0.99582 12.7053 0.337699 14.7308 1.16832 16.4301L2.66011 19.482C2.82104 19.8113 2.82104 20.1889 2.66011 20.5181L1.16824 23.57C0.33762 25.2693 0.995741 27.2947 2.66651 28.1811L5.66728 29.7733C5.99102 29.945 6.21298 30.2507 6.27634 30.6115L6.86321 33.9575C7.16071 35.6534 8.61491 36.8428 10.2862 36.8427C10.4508 36.8427 10.6179 36.8311 10.7858 36.8073L14.1493 36.3316C14.512 36.2801 14.8712 36.397 15.1346 36.6518L17.5761 39.0137C18.256 39.6713 19.128 40.0001 20.0003 40C20.8724 39.9999 21.745 39.6712 22.4245 39.0137L24.8661 36.6518C25.1295 36.397 25.4886 36.2806 25.8515 36.3316L29.2149 36.8073C31.0882 37.0723 32.8106 35.8204 33.1374 33.9574L33.7244 30.6116C33.7877 30.2507 34.0097 29.9451 34.3334 29.7733L37.3341 28.1811C39.0049 27.2947 39.663 25.2692 38.8324 23.5699L37.3405 20.518ZM36.2528 26.1431L33.252 27.7353C32.2953 28.243 31.6392 29.146 31.452 30.2129L30.8652 33.5588C30.7546 34.1891 30.1719 34.6124 29.5381 34.523L26.1746 34.0472C25.1019 33.8953 24.0405 34.2405 23.262 34.9935L20.8205 37.3553C20.3606 37.8002 19.6401 37.8002 19.1801 37.3553L16.7386 34.9935C16.0807 34.357 15.2205 34.012 14.3225 34.012C14.158 34.012 13.9921 34.0236 13.8261 34.0471L10.4626 34.5229C9.82928 34.6124 9.24608 34.189 9.13546 33.5587L8.54851 30.2127C8.36132 29.1458 7.70523 28.2428 6.74844 27.7352L3.74768 26.143C3.18237 25.8431 2.95971 25.1579 3.24073 24.583L4.73259 21.531C5.20822 20.5579 5.20822 19.4418 4.73259 18.4687L3.24073 15.4168C2.95971 14.8418 3.18237 14.1566 3.74768 13.8567L6.74844 12.2645C7.70515 11.7568 8.36132 10.8538 8.54843 9.78695L9.1353 6.44104C9.24593 5.81073 9.82858 5.38729 10.4624 5.47682L13.8259 5.9526C14.8982 6.1044 15.96 5.75932 16.7385 5.00628L19.18 2.64442C19.6399 2.19958 20.3604 2.19958 20.8204 2.64442L23.2619 5.00628C24.0404 5.7594 25.102 6.1044 26.1744 5.9526L29.5379 5.47682C30.1713 5.38722 30.7545 5.81073 30.865 6.44104L31.4519 9.78703C31.6391 10.8539 32.2952 11.7569 33.252 12.2645L36.2527 13.8567C36.818 14.1566 37.0407 14.8418 36.7597 15.4168L35.2678 18.4686C34.7922 19.4417 34.7922 20.5579 35.2678 21.5309L36.7597 24.5828C37.0408 25.1579 36.8181 25.8432 36.2528 26.1431Z" fill="#111546"/>
<path d="M28.4284 11.5715C27.9781 11.121 27.2476 11.121 26.7971 11.5715L11.5715 26.7972C11.121 27.2477 11.121 27.978 11.5715 28.4285C11.7967 28.6537 12.092 28.7664 12.3871 28.7664C12.6823 28.7664 12.9776 28.6538 13.2027 28.4285L28.4284 13.2029C28.879 12.7523 28.879 12.022 28.4284 11.5715Z" fill="#111546"/>
<path d="M15.3858 9.61841C13.0537 9.61841 11.1562 11.5158 11.1562 13.848C11.1562 16.1802 13.0537 18.0776 15.3858 18.0776C17.718 18.0776 19.6154 16.1802 19.6154 13.848C19.6154 11.5158 17.718 9.61841 15.3858 9.61841ZM15.3858 15.7705C14.3258 15.7705 13.4633 14.9081 13.4633 13.8479C13.4633 12.7878 14.3258 11.9254 15.3858 11.9254C16.4459 11.9254 17.3084 12.7878 17.3084 13.8479C17.3083 14.9081 16.4459 15.7705 15.3858 15.7705Z" fill="#111546"/>
<path d="M24.6141 21.9225C22.2819 21.9225 20.3845 23.8199 20.3845 26.1521C20.3845 28.4842 22.2819 30.3817 24.6141 30.3817C26.9463 30.3817 28.8437 28.4842 28.8437 26.1521C28.8437 23.8199 26.9463 21.9225 24.6141 21.9225ZM24.6141 28.0746C23.554 28.0746 22.6915 27.2121 22.6915 26.1521C22.6915 25.092 23.554 24.2296 24.6141 24.2296C25.6742 24.2296 26.5366 25.092 26.5366 26.1521C26.5366 27.2121 25.6742 28.0746 24.6141 28.0746Z" fill="#111546"/>
</g>
<defs>
<clipPath id="clip0">
<rect width="40" height="40" fill="white"/>
</clipPath>
</defs>
</svg>
