<svg width="65" height="62" viewBox="0 0 65 62" fill="none" xmlns="http://www.w3.org/2000/svg">
<path d="M-7.62939e-06 31C-7.62939e-06 48.1208 13.9011 62 31.0489 62C53.2267 62 51.4525 47.3857 62.0978 31C72.2997 11.9571 48.1968 0 31.0489 0C5.76622 0 -7.62939e-06 13.8792 -7.62939e-06 31Z" fill="#111546" fill-opacity="0.1"/>
<path d="M49.5 24.1873H37.8333V23.354C37.8284 19.2138 34.4736 15.8589 30.3333 15.854H14.5C10.3598 15.8589 7.00488 19.2138 7 23.354V33.354C7.00488 37.4942 10.3598 40.8491 14.5 40.854H15.3333V47.5207C15.3333 47.8576 15.5364 48.1615 15.8477 48.2905C16.1589 48.4195 16.5174 48.3479 16.7559 48.1099L24.0117 40.854H26.1667V41.6873C26.1715 45.8276 29.5264 49.1825 33.6667 49.1873H38.3216L47.2441 58.1099C47.4826 58.3479 47.8411 58.4195 48.1523 58.2905C48.4636 58.1615 48.6667 57.8576 48.6667 57.5207V49.1873H49.5C53.6402 49.1825 56.9951 45.8276 57 41.6873V31.6873C56.9951 27.5471 53.6402 24.1922 49.5 24.1873ZM23.6667 39.1873C23.4457 39.1873 23.2337 39.2752 23.0775 39.4315L17 45.509V40.0207C17 39.5605 16.6269 39.1873 16.1667 39.1873H14.5C11.2798 39.1837 8.67033 36.5742 8.66667 33.354V23.354C8.67033 20.1338 11.2798 17.5243 14.5 17.5207H30.3333C33.5535 17.5243 36.163 20.1338 36.1667 23.354V24.1873H33.6667C29.5264 24.1922 26.1715 27.5471 26.1667 31.6873V39.1873H23.6667ZM55.3333 41.6873C55.3297 44.9076 52.7202 47.517 49.5 47.5207H47.8333C47.3731 47.5207 47 47.8938 47 48.354V55.5089L39.2559 47.7648C39.0996 47.6086 38.8876 47.5207 38.6667 47.5207H33.6667C30.4465 47.517 27.837 44.9076 27.8333 41.6873V31.6873C27.837 28.4671 30.4465 25.8577 33.6667 25.854H49.5C52.7202 25.8577 55.3297 28.4671 55.3333 31.6873V41.6873Z" fill="#212121"/>
<path d="M51.1667 30.854H32C31.5398 30.854 31.1667 31.2271 31.1667 31.6873C31.1667 32.1475 31.5398 32.5207 32 32.5207H51.1667C51.6269 32.5207 52 32.1475 52 31.6873C52 31.2271 51.6269 30.854 51.1667 30.854Z" fill="#212121"/>
<path d="M51.1667 35.854H32C31.5398 35.854 31.1667 36.2271 31.1667 36.6873C31.1667 37.1475 31.5398 37.5207 32 37.5207H51.1667C51.6269 37.5207 52 37.1475 52 36.6873C52 36.2271 51.6269 35.854 51.1667 35.854Z" fill="#212121"/>
<path d="M51.1667 40.854H32C31.5398 40.854 31.1667 41.2271 31.1667 41.6873C31.1667 42.1475 31.5398 42.5207 32 42.5207H51.1667C51.6269 42.5207 52 42.1475 52 41.6873C52 41.2271 51.6269 40.854 51.1667 40.854Z" fill="#212121"/>
<path d="M12 24.1877H29.5C29.9602 24.1877 30.3333 23.8145 30.3333 23.3543C30.3333 22.8941 29.9602 22.521 29.5 22.521H12C11.5398 22.521 11.1667 22.8941 11.1667 23.3543C11.1667 23.8145 11.5398 24.1877 12 24.1877Z" fill="#212121"/>
<path d="M24.5 27.521H12C11.5398 27.521 11.1667 27.8941 11.1667 28.3543C11.1667 28.8145 11.5398 29.1877 12 29.1877H24.5C24.9602 29.1877 25.3333 28.8145 25.3333 28.3543C25.3333 27.8941 24.9602 27.521 24.5 27.521Z" fill="#212121"/>
<path d="M23.6667 32.521H12C11.5398 32.521 11.1667 32.8941 11.1667 33.3543C11.1667 33.8145 11.5398 34.1877 12 34.1877H23.6667C24.1269 34.1877 24.5 33.8145 24.5 33.3543C24.5 32.8941 24.1269 32.521 23.6667 32.521Z" fill="#212121"/>
</svg>
