<svg width="14" height="14" viewBox="0 0 14 14" fill="none" xmlns="http://www.w3.org/2000/svg">
<g clip-path="url(#clip0)">
<path fill-rule="evenodd" clip-rule="evenodd" d="M11.5337 2.45977C10.3304 1.26086 8.7302 0.600312 7.0254 0.599609C3.5125 0.599609 0.653505 3.44484 0.652092 6.94187C0.651621 8.05977 0.945056 9.15102 1.5028 10.1129L0.598633 13.3996L3.97722 12.5176C4.90816 13.023 5.95622 13.2893 7.02281 13.2896H7.02548C10.538 13.2896 13.3973 10.4441 13.3986 6.94695C13.3993 5.25211 12.737 3.65859 11.5337 2.45977ZM7.0254 12.2184H7.0232C6.07272 12.218 5.14052 11.9638 4.3271 11.4836L4.13375 11.3693L2.12885 11.8927L2.66398 9.94734L2.53799 9.74789C2.00772 8.90851 1.72771 7.93836 1.72818 6.94227C1.72928 4.03562 4.10565 1.67086 7.02752 1.67086C8.44242 1.67133 9.77245 2.22039 10.7726 3.21687C11.7726 4.21336 12.3231 5.53789 12.3226 6.94656C12.3214 9.85344 9.94516 12.2184 7.0254 12.2184ZM9.93102 8.27008C9.77182 8.1907 8.98886 7.80742 8.84285 7.75445C8.69699 7.70156 8.5907 7.67523 8.48465 7.83383C8.37844 7.99242 8.07331 8.34945 7.98036 8.45516C7.88742 8.56094 7.79463 8.57422 7.63535 8.49484C7.47607 8.41555 6.96299 8.24812 6.35469 7.7082C5.88133 7.28797 5.56176 6.76898 5.46881 6.61039C5.37602 6.45164 5.46803 6.37414 5.53868 6.28695C5.71107 6.07391 5.88369 5.85055 5.93675 5.74484C5.9899 5.63906 5.96329 5.54648 5.92341 5.46719C5.88369 5.38789 5.56521 4.60781 5.43255 4.29039C5.30318 3.98148 5.172 4.0232 5.07419 4.01836C4.9814 4.01375 4.87519 4.01281 4.76898 4.01281C4.66285 4.01281 4.4903 4.05242 4.34429 4.21117C4.19836 4.36984 3.78701 4.7532 3.78701 5.53328C3.78701 6.31336 4.35764 7.06695 4.43724 7.17273C4.51684 7.27852 5.56019 8.8793 7.1576 9.5657C7.53754 9.72914 7.83412 9.82656 8.06546 9.89961C8.44697 10.0202 8.79402 10.0032 9.06846 9.96242C9.37446 9.91687 10.0105 9.57898 10.1434 9.20883C10.276 8.83859 10.276 8.52133 10.2362 8.45516C10.1964 8.38906 10.0902 8.34945 9.93102 8.27008Z" fill="#111546"/>
</g>
<defs>
<clipPath id="clip0">
<rect width="12.8" height="12.8" fill="white" transform="translate(0.599609 0.599609)"/>
</clipPath>
</defs>
</svg>
