<svg width="14" height="14" viewBox="0 0 14 14" fill="none" xmlns="http://www.w3.org/2000/svg">
<path d="M12.7695 5.76953H1.23047C0.551961 5.76953 0 6.32149 0 7V9.46094C0 10.1394 0.551961 10.6914 1.23047 10.6914H2.89844V10.2812C2.89844 9.60274 3.4504 9.05078 4.12891 9.05078H9.87109C10.5496 9.05078 11.1016 9.60274 11.1016 10.2812V10.6914H12.7695C13.448 10.6914 14 10.1394 14 9.46094V7C14 6.32149 13.448 5.76953 12.7695 5.76953ZM8.64062 7.82031C8.41411 7.82031 8.23047 7.63667 8.23047 7.41016C8.23047 7.18359 8.41411 7 8.64062 7C8.86714 7 9.05078 7.18359 9.05078 7.41016C9.05078 7.63667 8.86714 7.82031 8.64062 7.82031ZM10.2812 7.82031C10.0547 7.82031 9.87109 7.63667 9.87109 7.41016C9.87109 7.18359 10.0547 7 10.2812 7C10.5078 7 10.6914 7.18359 10.6914 7.41016C10.6914 7.63667 10.5078 7.82031 10.2812 7.82031Z" fill="#D7141A"/>
<path d="M9.05078 0.88916V2.48828H10.6499C10.4864 1.68593 9.85313 1.05268 9.05078 0.88916Z" fill="#D7141A"/>
<path d="M3.71875 0.847656C3.49204 0.847656 3.30859 1.03111 3.30859 1.25781V4.94922H10.6914V3.30859H8.64062C8.41392 3.30859 8.23047 3.12514 8.23047 2.89844V0.847656H3.71875Z" fill="#D7141A"/>
<path d="M9.87109 13.1523C10.0978 13.1523 10.2812 12.9689 10.2812 12.7422V10.2812C10.2812 10.0545 10.0978 9.87109 9.87109 9.87109H4.12891C3.9022 9.87109 3.71875 10.0545 3.71875 10.2812V12.7422C3.71875 12.9689 3.9022 13.1523 4.12891 13.1523H9.87109ZM5.35938 11.1016H8.64062C8.86733 11.1016 9.05078 11.285 9.05078 11.5117C9.05078 11.7384 8.86733 11.9219 8.64062 11.9219H5.35938C5.13267 11.9219 4.94922 11.7384 4.94922 11.5117C4.94922 11.285 5.13267 11.1016 5.35938 11.1016Z" fill="#D7141A"/>
</svg>
