<svg width="70" height="70" viewBox="0 0 70 70" fill="none" xmlns="http://www.w3.org/2000/svg">
<g clip-path="url(#clip0)">
<path d="M65.3459 35.9065C65.0643 35.3303 65.0643 34.6694 65.3459 34.0932L67.9567 28.7524C69.4103 25.7786 68.2586 22.2342 65.3347 20.6829L60.0834 17.8965C59.5168 17.596 59.1284 17.0612 59.0175 16.4297L57.9905 10.5742C57.4186 7.31403 54.4029 5.12326 51.1262 5.58687L45.24 6.41948C44.6047 6.50917 43.9765 6.30491 43.5156 5.85907L39.243 1.72582C36.864 -0.575692 33.1371 -0.575829 30.7582 1.72582L26.4855 5.85949C26.0245 6.30546 25.3963 6.50931 24.7611 6.41989L18.8749 5.58728C15.5971 5.1234 12.5825 7.31444 12.0106 10.5746L10.9836 16.4298C10.8727 17.0615 10.4843 17.5962 9.91787 17.8968L4.66653 20.6831C1.74268 22.2343 0.590972 25.779 2.04456 28.7528L4.65519 34.0935C4.93683 34.6698 4.93683 35.3307 4.65519 35.9068L2.04442 41.2476C0.590836 44.2213 1.74255 47.7657 4.6664 49.3171L9.91774 52.1034C10.4843 52.4039 10.8727 52.9387 10.9836 53.5702L12.0106 59.4257C12.5312 62.3936 15.0761 64.475 18.0009 64.4747C18.289 64.4747 18.5813 64.4545 18.8751 64.4129L24.7612 63.5803C25.396 63.4902 26.0246 63.6949 26.4856 64.1407L30.7582 68.274C31.9479 69.4249 33.474 70.0002 35.0006 70C36.5267 69.9999 38.0537 69.4246 39.2429 68.274L43.5156 64.1407C43.9766 63.6949 44.605 63.4912 45.24 63.5803L51.1262 64.4129C54.4044 64.8767 57.4186 62.6857 57.9905 59.4256L59.0177 53.5704C59.1285 52.9387 59.517 52.404 60.0834 52.1034L65.3347 49.3171C68.2586 47.7659 69.4103 44.2212 67.9567 41.2474L65.3459 35.9065ZM63.4424 45.7505L58.1911 48.5368C56.5168 49.4253 55.3685 51.0055 55.0411 52.8725L54.0141 58.7279C53.8206 59.8309 52.8008 60.5718 51.6916 60.4153L45.8055 59.5827C43.9284 59.3167 42.0709 59.9209 40.7085 61.2387L36.4358 65.3718C35.6311 66.1503 34.3702 66.1503 33.5652 65.3718L29.2926 61.2386C28.1411 60.1248 26.6359 59.5211 25.0644 59.5211C24.7765 59.5211 24.4863 59.5414 24.1956 59.5825L18.3095 60.4151C17.2012 60.5718 16.1806 59.8308 15.9871 58.7278L14.9599 52.8723C14.6323 51.0053 13.4842 49.4249 11.8098 48.5367L6.55844 45.7504C5.56915 45.2255 5.1795 44.0264 5.67128 43.0202L8.28204 37.6794C9.11438 35.9764 9.11438 34.0232 8.28204 32.3203L5.67128 26.9794C5.1795 25.9733 5.56915 24.7741 6.55844 24.2493L11.8098 21.463C13.484 20.5744 14.6323 18.9943 14.9598 17.1272L15.9868 11.2719C16.1804 10.1688 17.2 9.42782 18.3092 9.5845L24.1953 10.4171C26.0718 10.6828 27.9299 10.0789 29.2923 8.76105L33.565 4.62779C34.3697 3.84932 35.6307 3.84932 36.4357 4.62779L40.7083 8.76105C42.0706 10.079 43.9285 10.6828 45.8052 10.4171L51.6914 9.5845C52.7997 9.42769 53.8203 10.1688 54.0138 11.2719L55.0408 17.1274C55.3684 18.9944 56.5165 20.5747 58.1909 21.463L63.4423 24.2493C64.4316 24.7741 64.8212 25.9733 64.3294 26.9794L61.7187 32.3201C60.8863 34.023 60.8863 35.9764 61.7187 37.6792L64.3294 43.02C64.8213 44.0263 64.4317 45.2256 63.4424 45.7505Z" fill="#111546"/>
<path opacity="0.2" d="M65.3459 35.9065C65.0643 35.3303 65.0643 34.6694 65.3459 34.0932L67.9567 28.7524C69.4103 25.7786 68.2586 22.2342 65.3347 20.6829L60.0834 17.8965C59.5168 17.596 59.1284 17.0612 59.0175 16.4297L57.9905 10.5742C57.4186 7.31403 54.4029 5.12326 51.1262 5.58687L45.24 6.41948C44.6047 6.50917 43.9765 6.30491 43.5156 5.85907L39.243 1.72582C36.864 -0.575692 33.1371 -0.575829 30.7582 1.72582L26.4855 5.85949C26.0245 6.30546 25.3963 6.50931 24.7611 6.41989L18.8749 5.58728C15.5971 5.1234 12.5825 7.31444 12.0106 10.5746L10.9836 16.4298C10.8727 17.0615 10.4843 17.5962 9.91787 17.8968L4.66653 20.6831C1.74268 22.2343 0.590972 25.779 2.04456 28.7528L4.65519 34.0935C4.93683 34.6698 4.93683 35.3307 4.65519 35.9068L2.04442 41.2476C0.590836 44.2213 1.74255 47.7657 4.6664 49.3171L9.91774 52.1034C10.4843 52.4039 10.8727 52.9387 10.9836 53.5702L12.0106 59.4257C12.5312 62.3936 15.0761 64.475 18.0009 64.4747C18.289 64.4747 18.5813 64.4545 18.8751 64.4129L24.7612 63.5803C25.396 63.4902 26.0246 63.6949 26.4856 64.1407L30.7582 68.274C31.9479 69.4249 33.474 70.0002 35.0006 70C36.5267 69.9999 38.0537 69.4246 39.2429 68.274L43.5156 64.1407C43.9766 63.6949 44.605 63.4912 45.24 63.5803L51.1262 64.4129C54.4044 64.8767 57.4186 62.6857 57.9905 59.4256L59.0177 53.5704C59.1285 52.9387 59.517 52.404 60.0834 52.1034L65.3347 49.3171C68.2586 47.7659 69.4103 44.2212 67.9567 41.2474L65.3459 35.9065Z" fill="#111546"/>
<path d="M49.7498 20.2502C48.9617 19.4619 47.6833 19.4619 46.895 20.2502L20.2502 46.8951C19.4619 47.6835 19.4619 48.9616 20.2502 49.7499C20.6443 50.1441 21.161 50.3413 21.6775 50.3413C22.194 50.3413 22.7108 50.1442 23.1048 49.7499L49.7497 23.1051C50.5383 22.3167 50.5383 21.0386 49.7498 20.2502Z" fill="#111546"/>
<path d="M19.5234 24.234C19.5234 20.1527 22.8439 16.8323 26.9252 16.8323C31.0065 16.8323 34.327 20.1527 34.327 24.234C34.327 28.3154 31.0065 31.6358 26.9252 31.6358C22.8439 31.6358 19.5234 28.3154 19.5234 24.234Z" fill="white"/>
<path d="M43.0749 38.3644C38.9936 38.3644 35.6731 41.6848 35.6731 45.7662C35.6731 49.8475 38.9936 53.1679 43.0749 53.1679C47.1562 53.1679 50.4766 49.8475 50.4766 45.7662C50.4766 41.6848 47.1562 38.3644 43.0749 38.3644Z" fill="white"/>
<path d="M26.9252 16.8323C22.8439 16.8323 19.5234 20.1527 19.5234 24.2341C19.5234 28.3154 22.8439 31.6358 26.9252 31.6358C31.0065 31.6358 34.327 28.3154 34.327 24.2341C34.327 20.1527 31.0065 16.8323 26.9252 16.8323ZM26.9252 27.5984C25.0701 27.5984 23.5609 26.0892 23.5609 24.2339C23.5609 22.3788 25.0701 20.8696 26.9252 20.8696C28.7803 20.8696 30.2897 22.3788 30.2897 24.2339C30.2896 26.0892 28.7803 27.5984 26.9252 27.5984Z" fill="#111546"/>
<path d="M43.0746 38.3644C38.9933 38.3644 35.6729 41.6848 35.6729 45.7662C35.6729 49.8475 38.9933 53.1679 43.0746 53.1679C47.1559 53.1679 50.4764 49.8475 50.4764 45.7662C50.4764 41.6848 47.1559 38.3644 43.0746 38.3644ZM43.0746 49.1305C41.2195 49.1305 39.7101 47.6213 39.7101 45.7662C39.7101 43.911 41.2194 42.4018 43.0746 42.4018C44.9298 42.4018 46.439 43.911 46.439 45.7662C46.439 47.6213 44.9298 49.1305 43.0746 49.1305Z" fill="#111546"/>
</g>
<defs>
<clipPath id="clip0">
<rect width="70" height="70" fill="white"/>
</clipPath>
</defs>
</svg>
