<svg width="70" height="70" viewBox="0 0 70 70" fill="none" xmlns="http://www.w3.org/2000/svg">
<path d="M57.2365 16.2169C51.783 10.7522 44.6789 7.544 37.0506 7.0551V4.10156H40.0585C41.191 4.10156 42.1092 3.18336 42.1092 2.05078C42.1092 0.918203 41.191 0 40.0585 0H29.9413C28.8087 0 27.8905 0.918203 27.8905 2.05078C27.8905 3.18336 28.8087 4.10156 29.9413 4.10156H32.9491V7.0551C27.7186 7.39033 22.7351 9.0043 18.3608 11.7478L16.4127 9.79576C15.4645 8.8457 14.2033 8.32262 12.8611 8.32262C11.519 8.32262 10.2577 8.84584 9.30973 9.79576L6.34689 12.765C4.3966 14.7191 4.3966 17.8989 6.34689 19.8532L8.30826 21.8187C5.21254 26.7721 3.55469 32.505 3.55469 38.4937C3.55469 46.9085 6.825 54.82 12.7632 60.7705C18.7026 66.7222 26.5997 70 34.9999 70C43.4 70 51.2971 66.7222 57.2365 60.7705C63.1747 54.82 66.445 46.9085 66.445 38.4937C66.445 30.0789 63.1747 22.1674 57.2365 16.2169ZM9.25012 15.6624L12.2131 12.6932C12.4466 12.4593 12.7194 12.4243 12.8613 12.4243C13.0032 12.4243 13.2761 12.4592 13.5096 12.6932L14.9957 14.1824C14.225 14.8213 13.4796 15.4993 12.7634 16.217C12.0492 16.9328 11.3745 17.6775 10.7386 18.4475L9.25012 16.956C8.8941 16.5993 8.8941 16.0189 9.25012 15.6624ZM34.9999 65.8984C19.9225 65.8984 7.65625 53.6047 7.65625 38.4937C7.65625 23.3827 19.9225 11.089 34.9999 11.089C50.0772 11.089 62.3435 23.3826 62.3435 38.4937C62.3435 53.6048 50.0772 65.8984 34.9999 65.8984Z" fill="#111546"/>
<path d="M57.2365 16.2169C51.783 10.7522 44.6789 7.544 37.0506 7.0551V4.10156H40.0585C41.191 4.10156 42.1092 3.18336 42.1092 2.05078C42.1092 0.918203 41.191 0 40.0585 0H29.9413C28.8087 0 27.8905 0.918203 27.8905 2.05078C27.8905 3.18336 28.8087 4.10156 29.9413 4.10156H32.9491V7.0551C27.7186 7.39033 22.7351 9.0043 18.3608 11.7478L16.4127 9.79576C15.4645 8.8457 14.2033 8.32262 12.8611 8.32262C11.519 8.32262 10.2577 8.84584 9.30973 9.79576L6.34689 12.765C4.3966 14.7191 4.3966 17.8989 6.34689 19.8532L8.30826 21.8187C5.21254 26.7721 3.55469 32.505 3.55469 38.4937C3.55469 46.9085 6.825 54.82 12.7632 60.7705C18.7026 66.7222 26.5997 70 34.9999 70C43.4 70 51.2971 66.7222 57.2365 60.7705C63.1747 54.82 66.445 46.9085 66.445 38.4937C66.445 30.0789 63.1747 22.1674 57.2365 16.2169ZM9.25012 15.6624L12.2131 12.6932C12.4466 12.4593 12.7194 12.4243 12.8613 12.4243C13.0032 12.4243 13.2761 12.4592 13.5096 12.6932L14.9957 14.1824C14.225 14.8213 13.4796 15.4993 12.7634 16.217C12.0492 16.9328 11.3745 17.6775 10.7386 18.4475L9.25012 16.956C8.8941 16.5993 8.8941 16.0189 9.25012 15.6624ZM34.9999 65.8984C19.9225 65.8984 7.65625 53.6047 7.65625 38.4937C7.65625 23.3827 19.9225 11.089 34.9999 11.089C50.0772 11.089 62.3435 23.3826 62.3435 38.4937C62.3435 53.6048 50.0772 65.8984 34.9999 65.8984Z" fill="#111546"/>
<path d="M57.2365 16.2169C51.783 10.7522 44.6789 7.544 37.0506 7.0551V4.10156H40.0585C41.191 4.10156 42.1092 3.18336 42.1092 2.05078C42.1092 0.918203 41.191 0 40.0585 0H29.9413C28.8087 0 27.8905 0.918203 27.8905 2.05078C27.8905 3.18336 28.8087 4.10156 29.9413 4.10156H32.9491V7.0551C27.7186 7.39033 22.7351 9.0043 18.3608 11.7478L16.4127 9.79576C15.4645 8.8457 14.2033 8.32262 12.8611 8.32262C11.519 8.32262 10.2577 8.84584 9.30973 9.79576L6.34689 12.765C4.3966 14.7191 4.3966 17.8989 6.34689 19.8532L8.30826 21.8187C5.21254 26.7721 3.55469 32.505 3.55469 38.4937C3.55469 46.9085 6.825 54.82 12.7632 60.7705C18.7026 66.7222 26.5997 70 34.9999 70C43.4 70 51.2971 66.7222 57.2365 60.7705C63.1747 54.82 66.445 46.9085 66.445 38.4937C66.445 30.0789 63.1747 22.1674 57.2365 16.2169ZM9.25012 15.6624L12.2131 12.6932C12.4466 12.4593 12.7194 12.4243 12.8613 12.4243C13.0032 12.4243 13.2761 12.4592 13.5096 12.6932L14.9957 14.1824C14.225 14.8213 13.4796 15.4993 12.7634 16.217C12.0492 16.9328 11.3745 17.6775 10.7386 18.4475L9.25012 16.956C8.8941 16.5993 8.8941 16.0189 9.25012 15.6624Z" fill="#111546"/>
<path d="M57.2365 16.2169C51.783 10.7522 44.6789 7.544 37.0506 7.0551V4.10156H40.0585C41.191 4.10156 42.1092 3.18336 42.1092 2.05078C42.1092 0.918203 41.191 0 40.0585 0H29.9413C28.8087 0 27.8905 0.918203 27.8905 2.05078C27.8905 3.18336 28.8087 4.10156 29.9413 4.10156H32.9491V7.0551C27.7186 7.39033 22.7351 9.0043 18.3608 11.7478L16.4127 9.79576C15.4645 8.8457 14.2033 8.32262 12.8611 8.32262C11.519 8.32262 10.2577 8.84584 9.30973 9.79576L6.34689 12.765C4.3966 14.7191 4.3966 17.8989 6.34689 19.8532L8.30826 21.8187C5.21254 26.7721 3.55469 32.505 3.55469 38.4937C3.55469 46.9085 6.825 54.82 12.7632 60.7705C18.7026 66.7222 26.5997 70 34.9999 70C43.4 70 51.2971 66.7222 57.2365 60.7705C63.1747 54.82 66.445 46.9085 66.445 38.4937C66.445 30.0789 63.1747 22.1674 57.2365 16.2169ZM9.25012 15.6624L12.2131 12.6932C12.4466 12.4593 12.7194 12.4243 12.8613 12.4243C13.0032 12.4243 13.2761 12.4592 13.5096 12.6932L14.9957 14.1824C14.225 14.8213 13.4796 15.4993 12.7634 16.217C12.0492 16.9328 11.3745 17.6775 10.7386 18.4475L9.25012 16.956C8.8941 16.5993 8.8941 16.0189 9.25012 15.6624Z" fill="#111546"/>
<path d="M35.0001 14.9333C22.0335 14.9333 11.4844 25.5025 11.4844 38.4938C11.4844 51.4851 22.0335 62.0543 35.0001 62.0543C47.9668 62.0543 58.5159 51.4851 58.5159 38.4938C58.5159 25.5025 47.9668 14.9333 35.0001 14.9333Z" fill="#111546"/>
<path d="M35.0001 14.9333C22.0335 14.9333 11.4844 25.5025 11.4844 38.4938C11.4844 51.4851 22.0335 62.0543 35.0001 62.0543C47.9668 62.0543 58.5159 51.4851 58.5159 38.4938C58.5159 25.5025 47.9668 14.9333 35.0001 14.9333ZM37.0509 57.8442V55.4471C37.0509 54.3145 36.1327 53.3963 35.0001 53.3963C33.8676 53.3963 32.9494 54.3145 32.9494 55.4471V57.8442C23.8772 56.8851 16.6484 49.6382 15.6937 40.5446H18.047C19.1796 40.5446 20.0978 39.6264 20.0978 38.4938C20.0978 37.3612 19.1796 36.443 18.047 36.443H15.6938C16.6484 27.3495 23.8772 20.1026 32.9494 19.1435V21.5406C32.9494 22.6731 33.8676 23.5913 35.0001 23.5913C36.1327 23.5913 37.0509 22.6731 37.0509 21.5406V19.1435C46.123 20.1026 53.3519 27.3495 54.3066 36.443H51.9533C50.8207 36.443 49.9025 37.3612 49.9025 38.4938C49.9025 39.6264 50.8207 40.5446 51.9533 40.5446H54.3065C53.3519 49.6382 46.123 56.8851 37.0509 57.8442Z" fill="white"/>
<path d="M40.0588 37.3102H37.1655V29.0159C37.1655 27.8833 36.2473 26.9651 35.1148 26.9651C33.9822 26.9651 33.064 27.8833 33.064 29.0159V39.361C33.064 40.4936 33.9822 41.4118 35.1148 41.4118H40.0588C41.1914 41.4118 42.1096 40.4936 42.1096 39.361C42.1096 38.2284 41.1914 37.3102 40.0588 37.3102Z" fill="white"/>
</svg>
