<svg width="40" height="40" viewBox="0 0 40 40" fill="none" xmlns="http://www.w3.org/2000/svg">
<g clip-path="url(#clip0)">
<path d="M39.345 26.6241C39.0329 26.4706 38.7307 26.2776 38.4468 26.0504C36.3433 24.3677 33.6472 24.0666 31.3306 25.1446L26.1347 19.9486C28.5917 19.8055 30.5468 17.762 30.5468 15.2699C30.5468 12.6852 28.444 10.5825 25.8594 10.5825C23.3671 10.5825 21.3238 12.5377 21.1807 14.9947L17.9404 11.7544L22.4858 7.20891C23.86 5.83484 23.8602 3.6118 22.4858 2.2375C21.1152 0.866797 18.885 0.866797 17.5144 2.2375L10.4832 9.26867C9.1091 10.6427 9.10887 12.8658 10.4832 14.2401L14.342 18.0989L7.69559 24.7452C5.65559 24.1918 3.45082 24.6262 1.67051 26.0503C1.35816 26.3002 1.02457 26.5081 0.678946 26.6685C0.0918365 26.9409 -0.163242 27.6377 0.109102 28.2248C0.381524 28.8119 1.07816 29.067 1.66535 28.7946C2.18129 28.5552 2.67566 28.2477 3.13465 27.8805C4.82285 26.5298 7.09145 26.5298 8.77981 27.8805C11.3332 29.9233 14.7119 29.931 17.2751 27.8805C18.9661 26.5277 21.1511 26.5277 22.8421 27.8805C25.3956 29.9233 28.7743 29.931 31.3375 27.8805C33.0257 26.5298 35.2943 26.5298 36.9825 27.8805C37.3992 28.2139 37.8461 28.4988 38.3109 28.7273C38.8917 29.0129 39.594 28.7734 39.8796 28.1927C40.1651 27.612 39.9258 26.9096 39.345 26.6241ZM25.8594 12.9263C27.1518 12.9263 28.2032 13.9777 28.2032 15.27C28.2032 16.5623 27.1518 17.6138 25.8594 17.6138C24.5671 17.6138 23.5157 16.5623 23.5157 15.27C23.5157 13.9777 24.5671 12.9263 25.8594 12.9263ZM24.3063 26.0504C23.0517 25.0467 21.5829 24.5163 20.0586 24.5163C18.5343 24.5163 17.0656 25.0467 15.811 26.0504C14.12 27.4031 11.9349 27.4031 10.2439 26.0504C10.143 25.9696 10.0402 25.8932 9.9366 25.8188L16.8279 18.9275C17.2855 18.4698 17.2855 17.7279 16.8279 17.2702L12.1404 12.5828C11.6823 12.1246 11.6821 11.3841 12.1404 10.9259L19.1716 3.89469C19.6299 3.43648 20.3703 3.43648 20.8286 3.89469C21.2868 4.35289 21.2868 5.09328 20.8286 5.55164L15.4545 10.9257C14.9968 11.3834 14.9968 12.1253 15.4545 12.583L29.3109 26.4394C27.7172 27.3865 25.8151 27.2575 24.3063 26.0504Z" fill="#111546"/>
<path d="M39.345 31.3115C39.0328 31.1581 38.7307 30.965 38.4467 30.7378C35.8826 28.6866 32.4372 28.6867 29.8733 30.7378C28.1823 32.0906 25.9972 32.0906 24.3063 30.7378C23.0517 29.7342 21.5829 29.2037 20.0586 29.2037C18.5343 29.2037 17.0656 29.7342 15.811 30.7378C14.12 32.0906 11.9349 32.0906 10.2439 30.7378C7.67996 28.6866 4.23465 28.6866 1.67051 30.7378C1.35816 30.9877 1.02457 31.1956 0.678946 31.356C0.0918366 31.6285 -0.163242 32.3252 0.109102 32.9123C0.381524 33.4994 1.07816 33.7545 1.66535 33.4821C2.18129 33.2428 2.67566 32.9353 3.13465 32.568C4.82285 31.2174 7.09145 31.2174 8.7798 32.568C11.3332 34.6108 14.7119 34.6185 17.2751 32.568C18.9661 31.2153 21.1511 31.2153 22.8421 32.568C25.3956 34.6108 28.7743 34.6185 31.3375 32.568C33.0257 31.2174 35.2943 31.2174 36.9825 32.568C37.3992 32.9014 37.8461 33.1863 38.3109 33.4148C38.8917 33.7004 39.594 33.461 39.8796 32.8803C40.165 32.2994 39.9257 31.5971 39.345 31.3115Z" fill="#111546"/>
<path d="M39.345 35.999C39.0328 35.8456 38.7307 35.6525 38.4467 35.4253C35.8826 33.3741 32.4372 33.3741 29.8733 35.4253C28.1823 36.7781 25.9972 36.7781 24.3063 35.4253C23.0517 34.4216 21.5829 33.8912 20.0586 33.8912C18.5343 33.8912 17.0656 34.4216 15.811 35.4253C14.12 36.7781 11.9349 36.7781 10.2439 35.4253C7.67996 33.3741 4.23465 33.3741 1.67051 35.4253C1.35816 35.6752 1.02457 35.8831 0.678946 36.0435C0.0918366 36.3159 -0.163242 37.0127 0.109102 37.5998C0.381524 38.1869 1.07816 38.4421 1.66535 38.1696C2.18129 37.9303 2.67566 37.6228 3.13465 37.2555C4.82285 35.9049 7.09145 35.9048 8.7798 37.2555C11.3332 39.2983 14.7119 39.306 17.2751 37.2555C18.9661 35.9027 21.1511 35.9027 22.8421 37.2555C25.3956 39.2983 28.7743 39.306 31.3375 37.2555C33.0257 35.9049 35.2943 35.9049 36.9825 37.2555C37.3992 37.5889 37.8461 37.8738 38.3109 38.1023C38.8917 38.3879 39.594 38.1485 39.8796 37.5678C40.165 36.9869 39.9257 36.2845 39.345 35.999Z" fill="#111546"/>
</g>
<defs>
<clipPath id="clip0">
<rect width="40" height="40" fill="white"/>
</clipPath>
</defs>
</svg>
