<svg width="23" height="24" viewBox="0 0 23 24" fill="none" xmlns="http://www.w3.org/2000/svg">
<path d="M20.8438 0.75H9.64114C9.12364 0.75 8.70364 1.17 8.70364 1.6875C8.70364 2.205 9.12364 2.625 9.64114 2.625H19.5182L0.493488 21.6497C0.127394 22.0158 0.127394 22.6092 0.493488 22.9753C0.676301 23.1586 0.9163 23.25 1.1563 23.25C1.3963 23.25 1.6363 23.1586 1.81911 22.9753L20.8438 3.95062V13.8277C20.8438 14.3452 21.2638 14.7652 21.7813 14.7652C22.2988 14.7652 22.7188 14.3452 22.7188 13.8277V2.625C22.7188 1.59094 21.8779 0.75 20.8438 0.75Z" fill="#fff"/>
</svg>
