<svg width="14" height="14" viewBox="0 0 14 14" fill="none" xmlns="http://www.w3.org/2000/svg">
<g clip-path="url(#clip0)">
<path d="M6.99961 13.3996C10.5351 13.3996 13.3996 10.5351 13.3996 6.99961C13.3996 3.46414 10.5351 0.599609 6.99961 0.599609C3.46414 0.599609 0.599609 3.46414 0.599609 6.99961C0.599609 10.5351 3.46414 13.3996 6.99961 13.3996ZM3.52814 6.86094L9.69881 4.48174C9.98521 4.37828 10.2353 4.55161 10.1425 4.98468L10.1431 4.98414L9.09241 9.93401C9.01454 10.2849 8.80601 10.3703 8.51428 10.2049L6.91428 9.02574L6.14254 9.76921C6.05721 9.85454 5.98521 9.92654 5.81988 9.92654L5.93348 8.29828L8.89881 5.61934C9.02788 5.50574 8.87001 5.44174 8.69988 5.55481L5.03534 7.86201L3.45561 7.36921C3.11268 7.26041 3.10521 7.02628 3.52814 6.86094Z" fill="#111546"/>
</g>
<defs>
<clipPath id="clip0">
<rect width="12.8" height="12.8" fill="white" transform="translate(0.599609 0.599609)"/>
</clipPath>
</defs>
</svg>
