<svg width="14" height="14" viewBox="0 0 14 14" fill="none" xmlns="http://www.w3.org/2000/svg">
<path fill-rule="evenodd" clip-rule="evenodd" d="M12.6929 0.599609H1.30628C0.915876 0.599609 0.599609 0.915876 0.599609 1.30628V12.6935C0.599609 13.0833 0.915876 13.3996 1.30628 13.3996H7.43694V8.44281H5.76868V6.51108H7.43694V5.08654C7.43694 3.43321 8.44654 2.53294 9.92174 2.53294C10.6284 2.53294 11.2353 2.58574 11.4124 2.60921V4.33721L10.3895 4.33774C9.58734 4.33774 9.43214 4.71908 9.43214 5.27801V6.51161H11.3452L11.0961 8.44334H9.43214V13.3996H12.694C13.0833 13.3996 13.3996 13.0833 13.3996 12.6929V1.30628C13.3996 0.915876 13.0833 0.599609 12.6929 0.599609Z" fill="#111546"/>
</svg>
