<svg width="32" height="32" viewBox="0 0 32 32" fill="none" xmlns="http://www.w3.org/2000/svg">
<path d="M16.004 0H15.996C7.174 0 0 7.176 0 16C0 19.5 1.128 22.744 3.046 25.378L1.052 31.322L7.202 29.356C9.732 31.032 12.75 32 16.004 32C24.826 32 32 24.822 32 16C32 7.178 24.826 0 16.004 0Z" fill="#4CAF50"/>
<path d="M25.3142 22.5939C24.9282 23.6839 23.3962 24.5879 22.1742 24.8519C21.3382 25.0299 20.2462 25.1719 16.5702 23.6479C11.8682 21.6999 8.84016 16.9219 8.60416 16.6119C8.37816 16.3019 6.70416 14.0819 6.70416 11.7859C6.70416 9.48987 7.87016 8.37187 8.34016 7.89187C8.72616 7.49787 9.36416 7.31787 9.97616 7.31787C10.1742 7.31787 10.3522 7.32787 10.5122 7.33587C10.9822 7.35587 11.2182 7.38387 11.5282 8.12587C11.9142 9.05587 12.8542 11.3519 12.9662 11.5879C13.0802 11.8239 13.1942 12.1439 13.0342 12.4539C12.8842 12.7739 12.7522 12.9159 12.5162 13.1879C12.2802 13.4599 12.0562 13.6679 11.8202 13.9599C11.6042 14.2139 11.3602 14.4859 11.6322 14.9559C11.9042 15.4159 12.8442 16.9499 14.2282 18.1819C16.0142 19.7719 17.4622 20.2799 17.9802 20.4959C18.3662 20.6559 18.8262 20.6179 19.1082 20.3179C19.4662 19.9319 19.9082 19.2919 20.3582 18.6619C20.6782 18.2099 21.0822 18.1539 21.5062 18.3139C21.9382 18.4639 24.2242 19.5939 24.6942 19.8279C25.1642 20.0639 25.4742 20.1759 25.5882 20.3739C25.7002 20.5719 25.7002 21.5019 25.3142 22.5939Z" fill="#FAFAFA"/>
</svg>
