<svg width="14" height="14" viewBox="0 0 14 14" fill="none" xmlns="http://www.w3.org/2000/svg">
<path fill-rule="evenodd" clip-rule="evenodd" d="M6.99956 1.75317C8.70836 1.75317 8.91102 1.75957 9.58622 1.7905C11.3206 1.86944 12.1308 2.69237 12.2097 4.41397C12.2406 5.08864 12.2465 5.2913 12.2465 7.0001C12.2465 8.70944 12.2401 8.91157 12.2097 9.58624C12.1302 11.3062 11.3222 12.1308 9.58622 12.2097C8.91102 12.2406 8.70942 12.247 6.99956 12.247C5.29076 12.247 5.08809 12.2406 4.41342 12.2097C2.67476 12.1302 1.86889 11.3036 1.78996 9.5857C1.75902 8.91104 1.75262 8.7089 1.75262 6.99957C1.75262 5.29077 1.75956 5.08864 1.78996 4.41344C1.86942 2.69237 2.67742 1.8689 4.41342 1.78997C5.08862 1.75957 5.29076 1.75317 6.99956 1.75317ZM6.99961 0.599609C5.26148 0.599609 5.04388 0.607076 4.36121 0.638009C2.03694 0.744676 0.745209 2.03428 0.638543 4.36068C0.607076 5.04388 0.599609 5.26148 0.599609 6.99961C0.599609 8.73774 0.607076 8.95588 0.638009 9.63854C0.744676 11.9628 2.03428 13.2545 4.36068 13.3612C5.04388 13.3921 5.26148 13.3996 6.99961 13.3996C8.73774 13.3996 8.95588 13.3921 9.63854 13.3612C11.9607 13.2545 13.2556 11.9649 13.3607 9.63854C13.3921 8.95588 13.3996 8.73774 13.3996 6.99961C13.3996 5.26148 13.3921 5.04388 13.3612 4.36121C13.2567 2.03908 11.9655 0.745209 9.63908 0.638543C8.95588 0.607076 8.73774 0.599609 6.99961 0.599609ZM6.99966 3.71326C5.18473 3.71326 3.71326 5.18473 3.71326 6.99966C3.71326 8.81459 5.18473 10.2866 6.99966 10.2866C8.81459 10.2866 10.2861 8.81513 10.2861 6.99966C10.2861 5.18473 8.81459 3.71326 6.99966 3.71326ZM6.99961 9.13294C5.82148 9.13294 4.86628 8.17828 4.86628 6.99961C4.86628 5.82148 5.82148 4.86628 6.99961 4.86628C8.17774 4.86628 9.13294 5.82148 9.13294 6.99961C9.13294 8.17828 8.17774 9.13294 6.99961 9.13294ZM10.4162 2.81548C9.99168 2.81548 9.64768 3.15948 9.64768 3.58348C9.64768 4.00748 9.99168 4.35148 10.4162 4.35148C10.8402 4.35148 11.1837 4.00748 11.1837 3.58348C11.1837 3.15948 10.8402 2.81548 10.4162 2.81548Z" fill="#111546"/>
</svg>
