<svg width="32" height="32" viewBox="0 0 32 32" fill="none" xmlns="http://www.w3.org/2000/svg">
<path d="M16 32C24.8366 32 32 24.8366 32 16C32 7.16344 24.8366 0 16 0C7.16344 0 0 7.16344 0 16C0 24.8366 7.16344 32 16 32Z" fill="#6F3FAA"/>
<path d="M24.4637 11.2448L24.4585 11.2237C24.031 9.49534 22.1036 7.64084 20.3336 7.25503L20.3137 7.2509C17.4508 6.70478 14.548 6.70478 11.6857 7.2509L11.6652 7.25503C9.89579 7.64084 7.96835 9.49546 7.54029 11.2237L7.53554 11.2448C7.00704 13.6583 7.00704 16.1061 7.53554 18.5197L7.54029 18.5408C7.95016 20.1953 9.73397 21.9646 11.4379 22.4512V24.3805C11.4379 25.0788 12.2888 25.4217 12.7727 24.9178L14.7274 22.886C15.1514 22.9097 15.5756 22.9229 15.9997 22.9229C17.4407 22.9229 18.8825 22.7866 20.3136 22.5136L20.3335 22.5095C22.1035 22.1236 24.0309 20.269 24.4584 18.5408L24.4637 18.5197C24.9922 16.1061 24.9922 13.6585 24.4637 11.2448ZM22.9168 18.1697C22.6313 19.2973 21.168 20.699 20.0052 20.958C18.483 21.2475 16.9487 21.3712 15.416 21.3288C15.3855 21.3279 15.3562 21.3398 15.335 21.3617C15.1174 21.5849 13.9078 22.8268 13.9078 22.8268L12.3898 24.3848C12.2788 24.5005 12.0838 24.4217 12.0838 24.262V21.066C12.0838 21.0132 12.0461 20.9684 11.9942 20.9582C11.9939 20.958 11.9937 20.958 11.9933 20.958C10.8306 20.699 9.36772 19.2972 9.08179 18.1697C8.6061 15.988 8.6061 13.7764 9.08179 11.5948C9.36772 10.4672 10.8306 9.06546 11.9933 8.80646C14.6518 8.30084 17.3473 8.30084 20.0053 8.80646C21.1686 9.06546 22.6314 10.4672 22.9168 11.5948C23.393 13.7765 23.393 15.9881 22.9168 18.1697Z" fill="white"/>
<path d="M18.5293 19.6451C18.3505 19.5908 18.1802 19.5543 18.0219 19.4888C16.3825 18.8086 14.8737 17.9311 13.6787 16.586C12.999 15.8211 12.4671 14.9576 12.0175 14.0437C11.8042 13.6103 11.6245 13.16 11.4413 12.7125C11.2743 12.3045 11.5203 11.883 11.7793 11.5755C12.0224 11.287 12.3352 11.0662 12.674 10.9034C12.9383 10.7764 13.1991 10.8496 13.3922 11.0737C13.8096 11.5582 14.1931 12.0675 14.5035 12.6291C14.6944 12.9745 14.642 13.3968 14.296 13.6318C14.2118 13.689 14.1352 13.7561 14.0569 13.8206C13.9882 13.8771 13.9235 13.9343 13.8764 14.0108C13.7903 14.1509 13.7862 14.3162 13.8416 14.4685C14.2683 15.6411 14.9875 16.553 16.1678 17.0441C16.3567 17.1227 16.5463 17.2141 16.7639 17.1888C17.1283 17.1463 17.2463 16.7465 17.5017 16.5377C17.7512 16.3336 18.0702 16.331 18.339 16.5011C18.608 16.6713 18.8686 16.854 19.1277 17.0386C19.3821 17.2199 19.6353 17.3971 19.8698 17.6038C20.0955 17.8025 20.1732 18.0631 20.0461 18.3326C19.8136 18.8265 19.4752 19.2371 18.9871 19.4994C18.8493 19.5733 18.6847 19.5972 18.5293 19.6451C18.3505 19.5908 18.6847 19.5972 18.5293 19.6451Z" fill="white"/>
<path d="M16.0034 10.3382C18.1478 10.3984 19.9091 11.8214 20.2865 13.9414C20.3508 14.3027 20.3737 14.6719 20.4023 15.0386C20.4144 15.1928 20.327 15.3393 20.1606 15.3414C19.9888 15.3435 19.9115 15.1996 19.9002 15.0455C19.8781 14.7404 19.8628 14.4338 19.8208 14.1313C19.5988 12.5339 18.3251 11.2123 16.7351 10.9288C16.4958 10.8861 16.251 10.8749 16.0086 10.8494C15.8554 10.8334 15.6548 10.8241 15.6208 10.6336C15.5924 10.4739 15.7271 10.3468 15.8792 10.3386C15.9204 10.3362 15.9619 10.3381 16.0034 10.3382C18.1479 10.3984 15.9619 10.3381 16.0034 10.3382Z" fill="white"/>
<path d="M19.2634 14.5635C19.2599 14.5903 19.258 14.6533 19.2423 14.7125C19.1854 14.9278 18.8588 14.9547 18.7837 14.7375C18.7614 14.6731 18.7581 14.5997 18.758 14.5303C18.7572 14.0762 18.6585 13.6225 18.4294 13.2273C18.1938 12.8211 17.834 12.4798 17.412 12.2731C17.1568 12.1482 16.8809 12.0705 16.6012 12.0243C16.479 12.0041 16.3555 11.9919 16.2326 11.9748C16.0838 11.9541 16.0042 11.8593 16.0114 11.7126C16.0179 11.5753 16.1184 11.4763 16.2682 11.4849C16.7604 11.5128 17.2359 11.6193 17.6736 11.8509C18.5635 12.3221 19.0719 13.0657 19.2203 14.0588C19.227 14.1038 19.2378 14.1483 19.2412 14.1935C19.2496 14.3048 19.2549 14.4164 19.2634 14.5635C19.2599 14.5902 19.2549 14.4164 19.2634 14.5635Z" fill="white"/>
<path d="M17.9285 14.5117C17.7491 14.515 17.6531 14.4156 17.6345 14.2512C17.6217 14.1366 17.6114 14.0204 17.584 13.9087C17.5301 13.6889 17.4133 13.4853 17.2284 13.3506C17.1411 13.287 17.0421 13.2407 16.9385 13.2107C16.8069 13.1727 16.6701 13.1832 16.5389 13.151C16.3963 13.1161 16.3174 13.0006 16.3398 12.8669C16.3602 12.7452 16.4786 12.6502 16.6117 12.6599C17.4434 12.7199 18.0377 13.1497 18.1226 14.1284C18.1286 14.1975 18.1356 14.2704 18.1203 14.3366C18.0939 14.4495 18.0102 14.5062 17.9285 14.5117C17.749 14.5149 18.0102 14.5062 17.9285 14.5117Z" fill="white"/>
<path d="M18.5292 19.6463C18.6863 19.5984 18.3484 19.5919 18.5292 19.6463V19.6463Z" fill="white"/>
<path d="M16.0042 10.3398C16.006 10.3398 16.0078 10.34 16.0096 10.34C16.1284 10.3442 18.0606 10.3969 16.0042 10.3398Z" fill="white"/>
<path d="M19.2638 14.5642C19.2553 14.416 19.2602 14.591 19.2638 14.5642V14.5642Z" fill="white"/>
<path d="M17.9227 14.5111C17.9246 14.511 17.9265 14.51 17.9284 14.5098C17.9231 14.5098 17.915 14.5099 17.9067 14.5102C17.9121 14.5103 17.917 14.5112 17.9227 14.5111Z" fill="white"/>
<path d="M17.93 14.5106C17.9219 14.5107 17.9147 14.5095 17.9069 14.5093C17.8678 14.5104 17.8274 14.5124 17.93 14.5106Z" fill="white"/>
<path d="M17.935 14.5093C17.9333 14.5095 17.9317 14.5103 17.9301 14.5104C17.9427 14.5096 17.9416 14.5093 17.935 14.5093Z" fill="white"/>
</svg>
