<svg width="16" height="16" viewBox="0 0 16 16" fill="none" xmlns="http://www.w3.org/2000/svg">
<g clip-path="url(#clip0)">
<path fill-rule="evenodd" clip-rule="evenodd" d="M13.3855 9.14788C13.8808 9.63151 14.4037 10.0865 14.8479 10.6189C15.0442 10.8555 15.23 11.0997 15.3721 11.3742C15.5736 11.7646 15.3911 12.1941 15.0412 12.2174L12.8656 12.2164C12.3045 12.263 11.8569 12.0371 11.4805 11.6534C11.1793 11.3466 10.9004 11.0201 10.6108 10.7029C10.492 10.5733 10.3677 10.4513 10.2193 10.3549C9.92228 10.1621 9.6645 10.2212 9.49478 10.5309C9.32193 10.846 9.28272 11.1948 9.26575 11.5459C9.24244 12.0582 9.08759 12.1929 8.573 12.2163C7.47326 12.2682 6.42956 12.1018 5.45999 11.547C4.60519 11.058 3.94232 10.3675 3.36537 9.58588C2.24203 8.06385 1.38178 6.39138 0.608622 4.67205C0.434589 4.28469 0.561863 4.07675 0.989266 4.06939C1.69899 4.0556 2.40861 4.05659 3.11916 4.06841C3.40762 4.07263 3.59858 4.23808 3.70995 4.51058C4.09393 5.45473 4.56378 6.35301 5.15353 7.18564C5.31059 7.40731 5.47074 7.62899 5.69879 7.78501C5.95108 7.95777 6.14317 7.90051 6.26186 7.61947C6.33717 7.44127 6.37014 7.24932 6.38712 7.05846C6.44335 6.40183 6.45076 5.74633 6.35214 5.092C6.29159 4.68363 6.06158 4.41927 5.65409 4.34199C5.44616 4.3026 5.47712 4.22522 5.5778 4.10653C5.75266 3.90184 5.91713 3.77441 6.24498 3.77441H8.70366C9.09073 3.85081 9.17669 4.02469 9.22968 4.41417L9.23179 7.14526C9.22757 7.29603 9.30711 7.74345 9.57868 7.84325C9.79604 7.9143 9.93931 7.74041 10.0697 7.60259C10.6584 6.9778 11.0785 6.23942 11.4539 5.47485C11.6205 5.13866 11.7637 4.78951 11.9025 4.44066C12.0053 4.1818 12.1667 4.05443 12.4583 4.06007L14.8246 4.06218C14.8948 4.06218 14.9658 4.06321 15.0337 4.07484C15.4325 4.14279 15.5418 4.31432 15.4186 4.7037C15.2246 5.3146 14.847 5.8237 14.4778 6.33515C14.0832 6.88119 13.6612 7.40854 13.2698 7.95782C12.9103 8.45941 12.9388 8.71224 13.3855 9.14788Z" fill="#111546"/>
</g>
<defs>
<clipPath id="clip0">
<rect width="14.9333" height="14.9333" fill="white" transform="translate(0.533203 0.533203)"/>
</clipPath>
</defs>
</svg>
