<svg width="129" height="62" viewBox="0 0 129 62" fill="none" xmlns="http://www.w3.org/2000/svg">
<path d="M79.2474 34.6997H74.231V26.0041H79.2474V27.5148H76.0779V29.4241H79.027V30.9348H76.0779V33.1771H79.2474V34.6997Z" fill="#D7141A"/>
<path d="M82.5123 34.6997L79.9743 28.0501H81.8748L83.1617 31.8389C83.3047 32.3186 83.394 32.7727 83.4298 33.2009H83.4655C83.4854 32.8202 83.5747 32.3662 83.7336 31.8389L85.0145 28.0501H86.9151L84.3771 34.6997H82.5123Z" fill="#D7141A"/>
<path d="M91.5919 27.9252C91.8382 27.9252 92.0427 27.9431 92.2056 27.9787L92.0686 29.6798C91.9216 29.6402 91.7429 29.6203 91.5324 29.6203C90.9525 29.6203 90.4997 29.769 90.174 30.0664C89.8523 30.3638 89.6914 30.7801 89.6914 31.3154V34.6997H87.8743V28.0501H89.2505L89.5186 29.1683H89.608C89.8145 28.7956 90.0926 28.4962 90.4421 28.2702C90.7956 28.0402 91.1789 27.9252 91.5919 27.9252Z" fill="#D7141A"/>
<path d="M94.8628 31.363C94.8628 32.0213 94.97 32.5189 95.1845 32.8559C95.4029 33.193 95.7564 33.3615 96.245 33.3615C96.7295 33.3615 97.0771 33.1949 97.2876 32.8619C97.5021 32.5248 97.6093 32.0252 97.6093 31.363C97.6093 30.7048 97.5021 30.2111 97.2876 29.882C97.0731 29.5529 96.7216 29.3884 96.2331 29.3884C95.7485 29.3884 95.399 29.5529 95.1845 29.882C94.97 30.2072 94.8628 30.7008 94.8628 31.363ZM99.4681 31.363C99.4681 32.4455 99.1822 33.2921 98.6102 33.9027C98.0383 34.5134 97.2419 34.8187 96.2211 34.8187C95.5817 34.8187 95.0177 34.6799 94.5291 34.4023C94.0406 34.1208 93.6652 33.7184 93.4031 33.1949C93.141 32.6715 93.0099 32.0609 93.0099 31.363C93.0099 30.2766 93.2939 29.432 93.8619 28.8293C94.4298 28.2266 95.2282 27.9252 96.2569 27.9252C96.8964 27.9252 97.4604 28.064 97.9489 28.3416C98.4374 28.6191 98.8128 29.0176 99.0749 29.5371C99.3371 30.0565 99.4681 30.6652 99.4681 31.363Z" fill="#D7141A"/>
<path d="M104.628 34.8187C103.845 34.8187 103.231 34.5352 102.787 33.9682H102.691C102.755 34.5233 102.787 34.8445 102.787 34.9317V37.626H100.969V28.0501H102.447L102.703 28.9125H102.787C103.212 28.2543 103.841 27.9252 104.675 27.9252C105.462 27.9252 106.077 28.2286 106.522 28.8352C106.967 29.4419 107.189 30.2845 107.189 31.363C107.189 32.0728 107.084 32.6894 106.874 33.2128C106.667 33.7362 106.371 34.1347 105.986 34.4083C105.601 34.6819 105.148 34.8187 104.628 34.8187ZM104.091 29.3765C103.643 29.3765 103.315 29.5153 103.108 29.7928C102.902 30.0664 102.795 30.5204 102.787 31.1549V31.3511C102.787 32.0649 102.892 32.5764 103.102 32.8857C103.317 33.1949 103.654 33.3496 104.115 33.3496C104.929 33.3496 105.337 32.6795 105.337 31.3392C105.337 30.685 105.235 30.1953 105.033 29.8701C104.834 29.541 104.52 29.3765 104.091 29.3765Z" fill="#D7141A"/>
<path d="M113.338 32.7251C113.338 33.4071 113.1 33.9265 112.623 34.2834C112.15 34.6403 111.441 34.8187 110.496 34.8187C110.011 34.8187 109.598 34.785 109.257 34.7176C108.915 34.6541 108.595 34.559 108.298 34.4321V32.9332C108.635 33.0919 109.014 33.2247 109.436 33.3317C109.86 33.4388 110.234 33.4923 110.556 33.4923C111.215 33.4923 111.545 33.302 111.545 32.9214C111.545 32.7786 111.501 32.6636 111.413 32.5764C111.326 32.4852 111.175 32.3841 110.961 32.273C110.746 32.1581 110.46 32.0252 110.103 31.8745C109.59 31.6604 109.213 31.4622 108.971 31.2798C108.732 31.0974 108.558 30.8892 108.447 30.6552C108.339 30.4173 108.286 30.1259 108.286 29.7809C108.286 29.1901 108.514 28.7341 108.971 28.4129C109.432 28.0878 110.083 27.9252 110.925 27.9252C111.727 27.9252 112.508 28.0997 113.266 28.4486L112.718 29.7571C112.385 29.6144 112.073 29.4974 111.783 29.4062C111.493 29.315 111.197 29.2694 110.895 29.2694C110.359 29.2694 110.091 29.4141 110.091 29.7036C110.091 29.8662 110.176 30.0069 110.347 30.1259C110.522 30.2449 110.901 30.4213 111.485 30.6552C112.005 30.8654 112.387 31.0617 112.629 31.2441C112.871 31.4265 113.05 31.6366 113.165 31.8745C113.28 32.1125 113.338 32.396 113.338 32.7251Z" fill="#D7141A"/>
<path d="M116.501 31.0835L117.294 30.0724L119.159 28.0501H121.208L118.563 30.9348L121.369 34.6997H119.272L117.353 32.0054L116.573 32.6299V34.6997H114.756V25.445H116.573V29.5728L116.478 31.0835H116.501Z" fill="#D7141A"/>
<path d="M126.552 34.6997L126.201 33.7957H126.153C125.847 34.1803 125.531 34.4479 125.206 34.5986C124.884 34.7453 124.463 34.8187 123.943 34.8187C123.303 34.8187 122.799 34.6363 122.429 34.2715C122.064 33.9067 121.881 33.3873 121.881 32.7132C121.881 32.0074 122.128 31.4879 122.62 31.1549C123.117 30.8178 123.863 30.6315 124.86 30.5958L126.016 30.5601V30.2686C126.016 29.5946 125.67 29.2575 124.979 29.2575C124.447 29.2575 123.822 29.4181 123.103 29.7393L122.501 28.514C123.267 28.1136 124.117 27.9133 125.051 27.9133C125.945 27.9133 126.63 28.1076 127.106 28.4962C127.583 28.8848 127.821 29.4756 127.821 30.2686V34.6997H126.552ZM126.016 31.6188L125.313 31.6426C124.785 31.6584 124.392 31.7536 124.133 31.9281C123.875 32.1025 123.746 32.3682 123.746 32.7251C123.746 33.2366 124.04 33.4923 124.628 33.4923C125.049 33.4923 125.384 33.3714 125.635 33.1295C125.889 32.8876 126.016 32.5665 126.016 32.166V31.6188ZM123.996 27.3185V27.158C124.679 26.3649 125.146 25.7682 125.396 25.3677H127.434V25.4926C127.227 25.6988 126.874 26.0061 126.373 26.4145C125.877 26.8189 125.488 27.1203 125.206 27.3185H123.996Z" fill="#D7141A"/>
<path d="M77.9299 12.1875C77.2348 12.1875 76.6966 12.4492 76.3153 12.9726C75.934 13.492 75.7434 14.2177 75.7434 15.1495C75.7434 17.0885 76.4722 18.0579 77.9299 18.0579C78.5415 18.0579 79.2823 17.9053 80.1521 17.6V19.1464C79.4372 19.4438 78.6388 19.5925 77.7571 19.5925C76.4901 19.5925 75.5209 19.2098 74.8497 18.4445C74.1784 17.6753 73.8428 16.573 73.8428 15.1376C73.8428 14.2335 74.0077 13.4425 74.3373 12.7644C74.667 12.0824 75.1396 11.561 75.7553 11.2002C76.3749 10.8354 77.0997 10.653 77.9299 10.653C78.7759 10.653 79.6258 10.8572 80.4798 11.2656L79.884 12.7644C79.5583 12.6098 79.2306 12.475 78.901 12.36C78.5713 12.245 78.2476 12.1875 77.9299 12.1875ZM80.4441 8.1311V8.29169C80.1104 8.62477 79.8026 8.95784 79.5206 9.29092C79.2426 9.62003 79.042 9.88371 78.9189 10.082H76.7919C76.6767 9.89561 76.5119 9.67356 76.2974 9.41582C76.083 9.15412 75.7394 8.77941 75.2667 8.29169V8.1311H76.4762C77.06 8.49987 77.5148 8.8488 77.8405 9.17791C78.1741 8.83294 78.6388 8.484 79.2346 8.1311H80.4441Z" fill="#111546"/>
<path d="M84.6264 13.9897C84.2411 13.9897 83.9393 14.1126 83.7208 14.3584C83.5024 14.6003 83.3773 14.9453 83.3455 15.3933H85.8954C85.8875 14.9453 85.7703 14.6003 85.5439 14.3584C85.3175 14.1126 85.0117 13.9897 84.6264 13.9897ZM84.8826 19.5925C83.8102 19.5925 82.9721 19.2971 82.3684 18.7062C81.7647 18.1154 81.4628 17.2788 81.4628 16.1963C81.4628 15.0821 81.7409 14.2216 82.2969 13.615C82.857 13.0043 83.6295 12.699 84.6145 12.699C85.5558 12.699 86.2886 12.9666 86.8129 13.5019C87.3372 14.0372 87.5993 14.7768 87.5993 15.7205V16.6007H83.3038C83.3236 17.1162 83.4766 17.5187 83.7625 17.8081C84.0485 18.0976 84.4497 18.2423 84.966 18.2423C85.3672 18.2423 85.7465 18.2007 86.1039 18.1174C86.4614 18.0341 86.8348 17.9013 87.224 17.7189V19.1226C86.9063 19.2812 86.5667 19.3982 86.2052 19.4735C85.8438 19.5528 85.4029 19.5925 84.8826 19.5925Z" fill="#111546"/>
<path d="M93.7239 17.4988C93.7239 18.1809 93.4856 18.7003 93.009 19.0572C92.5364 19.414 91.8274 19.5925 90.8821 19.5925C90.3975 19.5925 89.9844 19.5588 89.6429 19.4914C89.3013 19.4279 88.9816 19.3327 88.6837 19.2059V17.707C89.0213 17.8656 89.4006 17.9985 89.8216 18.1055C90.2466 18.2126 90.6199 18.2661 90.9417 18.2661C91.601 18.2661 91.9307 18.0758 91.9307 17.6951C91.9307 17.5524 91.887 17.4374 91.7996 17.3502C91.7122 17.259 91.5613 17.1578 91.3468 17.0468C91.1323 16.9318 90.8463 16.799 90.4889 16.6483C89.9765 16.4342 89.5992 16.2359 89.3569 16.0535C89.1186 15.8711 88.9438 15.663 88.8326 15.429C88.7254 15.1911 88.6718 14.8997 88.6718 14.5547C88.6718 13.9639 88.9001 13.5079 89.3569 13.1867C89.8176 12.8616 90.469 12.699 91.311 12.699C92.1134 12.699 92.8938 12.8735 93.6525 13.2224L93.1043 14.5309C92.7707 14.3882 92.4589 14.2712 92.169 14.18C91.879 14.0888 91.5831 14.0432 91.2813 14.0432C90.7451 14.0432 90.477 14.1879 90.477 14.4774C90.477 14.64 90.5624 14.7807 90.7331 14.8997C90.9079 15.0186 91.2872 15.1951 91.8711 15.429C92.3914 15.6392 92.7727 15.8355 93.015 16.0179C93.2573 16.2003 93.436 16.4104 93.5512 16.6483C93.6664 16.8862 93.7239 17.1697 93.7239 17.4988Z" fill="#111546"/>
<path d="M96.8875 15.8573L97.6799 14.8461L99.5447 12.8239H101.594L98.9489 15.7086L101.755 19.4735H99.6579L97.7395 16.7792L96.959 17.4037V19.4735H95.1419V10.2188H96.959V14.3465L96.8637 15.8573H96.8875Z" fill="#111546"/>
<path d="M104.156 16.1368C104.156 16.795 104.263 17.2927 104.478 17.6297C104.696 17.9667 105.05 18.1353 105.538 18.1353C106.023 18.1353 106.37 17.9687 106.581 17.6356C106.795 17.2986 106.903 16.799 106.903 16.1368C106.903 15.4786 106.795 14.9849 106.581 14.6558C106.366 14.3267 106.015 14.1621 105.526 14.1621C105.042 14.1621 104.692 14.3267 104.478 14.6558C104.263 14.981 104.156 15.4746 104.156 16.1368ZM108.761 16.1368C108.761 17.2193 108.475 18.0659 107.903 18.6765C107.332 19.2871 106.535 19.5925 105.514 19.5925C104.875 19.5925 104.311 19.4537 103.822 19.1761C103.334 18.8946 102.959 18.4921 102.696 17.9687C102.434 17.4453 102.303 16.8347 102.303 16.1368C102.303 15.0503 102.587 14.2058 103.155 13.6031C103.723 13.0003 104.521 12.699 105.55 12.699C106.19 12.699 106.754 12.8378 107.242 13.1153C107.731 13.3929 108.106 13.7914 108.368 14.3108C108.63 14.8303 108.761 15.4389 108.761 16.1368Z" fill="#111546"/>
<path d="M79.5623 49.9261L78.9308 47.8563H75.7553L75.1237 49.9261H73.1339L76.2081 41.1948H78.4661L81.5522 49.9261H79.5623ZM78.4899 46.3099C77.906 44.4343 77.5764 43.3736 77.5009 43.1278C77.4294 42.882 77.3778 42.6877 77.346 42.5449C77.2149 43.0525 76.8396 44.3074 76.22 46.3099H78.4899Z" fill="#111546"/>
<path d="M88.3083 43.2765V44.1984L87.2657 44.4661C87.4564 44.7634 87.5517 45.0965 87.5517 45.4653C87.5517 46.179 87.3015 46.7361 86.801 47.1366C86.3045 47.5331 85.6134 47.7314 84.7277 47.7314L84.4 47.7135L84.1319 47.6838C83.9452 47.8265 83.8519 47.9852 83.8519 48.1596C83.8519 48.4213 84.1855 48.5522 84.8528 48.5522H85.9848C86.7156 48.5522 87.2717 48.7088 87.653 49.0221C88.0382 49.3353 88.2309 49.7953 88.2309 50.4019C88.2309 51.1791 87.9052 51.7818 87.2538 52.2101C86.6064 52.6383 85.675 52.8524 84.4596 52.8524C83.5302 52.8524 82.8192 52.6898 82.3267 52.3647C81.8382 52.0435 81.5939 51.5915 81.5939 51.0086C81.5939 50.6081 81.719 50.2731 81.9692 50.0034C82.2195 49.7338 82.5869 49.5415 83.0714 49.4265C82.8848 49.3472 82.7219 49.2183 82.5829 49.0399C82.4439 48.8575 82.3744 48.6652 82.3744 48.463C82.3744 48.2092 82.4479 47.999 82.5948 47.8325C82.7418 47.662 82.9543 47.4955 83.2323 47.3329C82.8828 47.1822 82.6047 46.9403 82.3982 46.6073C82.1956 46.2742 82.0944 45.8816 82.0944 45.4296C82.0944 44.704 82.3307 44.1429 82.8033 43.7464C83.276 43.3499 83.9512 43.1516 84.829 43.1516C85.0157 43.1516 85.2361 43.1694 85.4903 43.2051C85.7485 43.2369 85.9133 43.2606 85.9848 43.2765H88.3083ZM83.1668 50.8659C83.1668 51.1157 83.2859 51.3119 83.5242 51.4547C83.7665 51.5974 84.1041 51.6688 84.537 51.6688C85.1884 51.6688 85.6988 51.5796 86.0682 51.4012C86.4376 51.2227 86.6223 50.9789 86.6223 50.6696C86.6223 50.4198 86.513 50.2473 86.2946 50.1521C86.0761 50.057 85.7385 50.0094 85.2818 50.0094H84.3404C84.0068 50.0094 83.7268 50.0867 83.5004 50.2413C83.278 50.4 83.1668 50.6081 83.1668 50.8659ZM83.8281 45.4534C83.8281 45.8142 83.9095 46.0997 84.0723 46.3099C84.2392 46.52 84.4914 46.6251 84.829 46.6251C85.1706 46.6251 85.4208 46.52 85.5797 46.3099C85.7385 46.0997 85.818 45.8142 85.818 45.4534C85.818 44.6524 85.4883 44.2519 84.829 44.2519C84.1617 44.2519 83.8281 44.6524 83.8281 45.4534Z" fill="#111546"/>
<path d="M92.169 44.4423C91.7837 44.4423 91.4818 44.5652 91.2634 44.811C91.0449 45.0529 90.9198 45.3979 90.888 45.8459H93.438C93.43 45.3979 93.3129 45.0529 93.0865 44.811C92.8601 44.5652 92.5542 44.4423 92.169 44.4423ZM92.4252 50.0451C91.3528 50.0451 90.5147 49.7497 89.911 49.1589C89.3072 48.568 89.0054 47.7314 89.0054 46.6489C89.0054 45.5347 89.2834 44.6742 89.8395 44.0676C90.3995 43.4569 91.172 43.1516 92.1571 43.1516C93.0984 43.1516 93.8312 43.4192 94.3555 43.9545C94.8798 44.4898 95.1419 45.2294 95.1419 46.1731V47.0533H90.8463C90.8662 47.5688 91.0191 47.9713 91.3051 48.2607C91.5911 48.5502 91.9922 48.6949 92.5086 48.6949C92.9097 48.6949 93.289 48.6533 93.6465 48.57C94.004 48.4868 94.3773 48.3539 94.7666 48.1715V49.5752C94.4488 49.7338 94.1092 49.8508 93.7478 49.9261C93.3863 50.0054 92.9455 50.0451 92.4252 50.0451Z" fill="#111546"/>
<path d="M102.768 49.9261H100.951V46.0422C100.951 45.5624 100.865 45.2036 100.695 44.9657C100.524 44.7238 100.252 44.6029 99.8783 44.6029C99.3699 44.6029 99.0025 44.7734 98.7762 45.1144C98.5498 45.4514 98.4366 46.0125 98.4366 46.7976V49.9261H96.6194V43.2765H98.0076L98.2519 44.127H98.3531C98.5557 43.8059 98.8337 43.564 99.1872 43.4014C99.5447 43.2349 99.9498 43.1516 100.403 43.1516C101.177 43.1516 101.765 43.3618 102.166 43.7821C102.567 44.1984 102.768 44.8011 102.768 45.5902V49.9261Z" fill="#111546"/>
<path d="M107.445 48.5998C107.762 48.5998 108.144 48.5304 108.589 48.3916V49.7417C108.136 49.944 107.58 50.0451 106.92 50.0451C106.194 50.0451 105.663 49.8627 105.33 49.4979C105 49.1291 104.835 48.578 104.835 47.8444V44.6385H103.965V43.8713L104.966 43.2646L105.491 41.8609H106.652V43.2765H108.517V44.6385H106.652V47.8444C106.652 48.1021 106.724 48.2925 106.867 48.4154C107.014 48.5383 107.206 48.5998 107.445 48.5998Z" fill="#111546"/>
<path d="M114.66 49.9261L114.415 49.0756H114.32C114.125 49.3849 113.849 49.6248 113.492 49.7953C113.134 49.9618 112.727 50.0451 112.271 50.0451C111.488 50.0451 110.898 49.8369 110.501 49.4206C110.104 49.0002 109.905 48.3975 109.905 47.6124V43.2765H111.722V47.1604C111.722 47.6402 111.808 48.001 111.979 48.2429C112.149 48.4808 112.421 48.5998 112.795 48.5998C113.303 48.5998 113.671 48.4312 113.897 48.0942C114.123 47.7532 114.237 47.1901 114.237 46.405V43.2765H116.054V49.9261H114.66Z" fill="#111546"/>
<path d="M121.678 43.1516C121.924 43.1516 122.129 43.1694 122.292 43.2051L122.154 44.9062C122.008 44.8665 121.829 44.8467 121.618 44.8467C121.038 44.8467 120.586 44.9954 120.26 45.2928C119.938 45.5902 119.777 46.0065 119.777 46.5418V49.9261H117.96V43.2765H119.336L119.605 44.3947H119.694C119.9 44.022 120.178 43.7226 120.528 43.4966C120.882 43.2666 121.265 43.1516 121.678 43.1516Z" fill="#111546"/>
<path d="M127.731 49.9261L127.379 49.0221H127.332C127.026 49.4067 126.71 49.6743 126.385 49.825C126.063 49.9717 125.642 50.0451 125.121 50.0451C124.482 50.0451 123.978 49.8627 123.608 49.4979C123.243 49.1331 123.06 48.6136 123.06 47.9396C123.06 47.2338 123.306 46.7143 123.799 46.3812C124.295 46.0442 125.042 45.8578 126.039 45.8222L127.195 45.7865V45.495C127.195 44.8209 126.849 44.4839 126.158 44.4839C125.626 44.4839 125 44.6445 124.281 44.9657L123.68 43.7404C124.446 43.3399 125.296 43.1397 126.23 43.1397C127.123 43.1397 127.808 43.334 128.285 43.7226C128.762 44.1112 129 44.702 129 45.495V49.9261H127.731ZM127.195 46.8452L126.492 46.869C125.964 46.8848 125.57 46.98 125.312 47.1545C125.054 47.3289 124.925 47.5946 124.925 47.9515C124.925 48.463 125.219 48.7187 125.807 48.7187C126.228 48.7187 126.563 48.5978 126.813 48.3559C127.068 48.114 127.195 47.7928 127.195 47.3924V46.8452Z" fill="#111546"/>
<path fill-rule="evenodd" clip-rule="evenodd" d="M55.0942 9.63079L46.3822 24.7007C44.4158 21.4602 40.851 19.2947 36.7799 19.2947C30.5833 19.2947 25.5599 24.3115 25.5599 30.5C25.5599 36.6885 30.5833 41.7053 36.7799 41.7053C40.7821 41.7053 44.2949 39.6125 46.281 36.463L54.9707 51.4944C49.1654 57.3492 40.958 61 31.8599 61C14.2642 61 0 47.3447 0 30.5C0 13.6553 14.2642 0 31.8599 0C41.0227 0 49.282 3.70289 55.0942 9.63079Z" fill="#111546"/>
<path d="M66 30.4999C66 34.6367 62.6422 37.9901 58.5 37.9901C54.3579 37.9901 51.0001 34.6367 51.0001 30.4999C51.0001 26.3632 54.3579 23.0098 58.5 23.0098C62.6422 23.0098 66 26.3632 66 30.4999Z" fill="#D7141A"/>
</svg>
