<svg width="70" height="66" viewBox="0 0 70 66" fill="none" xmlns="http://www.w3.org/2000/svg">
<path d="M30.1011 46.2042C30.6184 45.6869 30.6184 44.8496 30.1011 44.3323C29.5832 43.8165 28.7443 43.8165 28.226 44.3323C27.7092 44.8496 27.7092 45.6869 28.226 46.2042C28.7443 46.72 29.5832 46.72 30.1011 46.2042Z" fill="#111546"/>
<path d="M23.7245 14.8079C23.7245 22.886 30.3092 29.4582 38.4027 29.4582C46.4962 29.4582 53.081 22.886 53.081 14.8079C53.081 6.72969 46.4962 0.158057 38.4027 0.158057C30.3092 0.158057 23.7245 6.72969 23.7245 14.8079Z" fill="#111546" stroke="#111546" stroke-width="0.2"/>
<path d="M24.7985 59.1145L24.798 59.1151L18.3726 65.4328L18.3025 65.3615L18.3726 65.4328C17.8129 65.9831 16.9136 65.9769 16.3611 65.4211L1.48047 50.4563L1.48045 50.4563C0.92793 49.9004 0.929017 49.0036 1.4827 48.4494L7.78742 42.1384L7.78752 42.1383C8.74917 41.1785 10.0793 40.785 11.3495 41.0017C14.3679 35.4908 19.9584 32.5554 26.3477 32.5554C28.6563 32.5554 30.8945 32.9999 33.0044 33.878H47.763C49.3823 33.878 50.8832 34.6128 51.8894 35.7978L59.6302 27.8572C61.558 25.6287 64.9444 25.3562 67.2055 27.2581L67.2057 27.2582C69.4818 29.1787 69.7695 32.5868 67.8472 34.8566C62.6427 41.0647 59.7005 44.5767 58.0342 46.5656C57.6644 47.007 57.3574 47.3734 57.1026 47.6776C55.8564 49.1648 55.8536 49.167 55.8321 49.1845L24.7985 59.1145ZM24.7985 59.1145C25.9024 58.0128 26.2483 56.39 25.7862 54.9673L27.1229 53.6808L27.1229 53.6808C27.8484 52.9814 28.8033 52.596 29.8131 52.596H47.4316C50.5833 52.596 53.5625 51.3879 55.8209 49.1945L24.7985 59.1145ZM65.6662 33.025L65.6658 33.0253L53.7823 47.204C52.0656 48.8469 49.813 49.7509 47.4316 49.7509H29.8131C28.0608 49.7509 26.4016 50.4198 25.1432 51.6333L24.0875 52.6501L13.8269 42.41C16.2429 37.9431 20.7436 35.4006 26.3472 35.4006C28.3635 35.4006 30.3125 35.8056 32.1417 36.6042C32.3221 36.6831 32.5164 36.7237 32.713 36.7237H47.763C49.146 36.7237 50.3139 37.8497 50.3139 39.2688C50.3139 40.6724 49.1698 41.8144 47.763 41.8144H36.95C36.1632 41.8144 35.5248 42.4513 35.5248 43.237C35.5248 44.0233 36.1632 44.6596 36.95 44.6596H47.763C50.7413 44.6596 53.1642 42.2417 53.1642 39.2688C53.1642 39.0479 53.1495 38.8291 53.1229 38.6125C55.5716 36.1003 57.3368 34.2898 58.6057 32.9883C59.2861 32.2904 59.8238 31.7388 60.2477 31.304C60.8567 30.6792 61.2308 30.2952 61.4555 30.064C61.6759 29.8372 61.7559 29.7541 61.7713 29.736C62.6802 28.6652 64.2941 28.5294 65.3674 29.4325C66.4415 30.339 66.5776 31.9482 65.6662 33.025ZM11.3223 43.9775L11.3229 43.9778C11.3391 43.9877 11.3488 43.9931 11.3562 43.9972C11.3667 44.003 11.3725 44.0062 11.3859 44.0162C11.4077 44.0323 11.4434 44.0629 11.5217 44.1374C11.6771 44.2853 11.9873 44.5933 12.6641 45.2695C12.9312 45.5364 13.2552 45.8605 13.6492 46.2544C15.25 47.8553 18.005 50.6104 22.7832 55.3727C23.2726 55.8612 23.2464 56.6399 22.7908 57.095C22.7906 57.0951 22.7905 57.0952 22.7904 57.0953L17.3841 62.411L4.50237 49.4562L9.80443 44.1492C10.2085 43.7459 10.8286 43.6729 11.3223 43.9775Z" fill="#111546" stroke="#111546" stroke-width="0.2"/>
<path opacity="0.2" d="M16.4321 65.2591C16.9458 65.7759 17.7821 65.7816 18.3025 65.2699L24.7279 58.9522C25.8195 57.8627 26.1514 56.2497 25.6714 54.8475L27.0535 53.5172C27.7976 52.7998 28.7774 52.4045 29.8131 52.4045H47.4316C50.5573 52.4045 53.5116 51.2065 55.7512 49.0311C55.8434 48.9417 55.0516 49.8725 67.7709 34.7005C69.6574 32.4729 69.3751 29.128 67.1412 27.2431C64.9212 25.3758 61.5956 25.644 59.7039 27.8333L51.8835 35.8556C50.896 34.6426 49.3901 33.8864 47.763 33.8864H32.9843C30.8814 33.0084 28.65 32.5639 26.3477 32.5639C19.9658 32.5639 14.3933 35.5057 11.4028 41.0213C10.1429 40.783 8.8141 41.1634 7.85817 42.1175L1.55345 48.4285C1.03871 48.9438 1.03768 49.7774 1.55138 50.2943L16.4321 65.2591Z" fill="#111546"/>
<path d="M36.8129 6.87179V8.42177C35.2703 8.96754 34.1621 10.4379 34.1621 12.1626C34.1621 14.3503 35.9456 16.1308 38.1381 16.1308C38.8688 16.1308 39.4633 16.7241 39.4633 17.4534C39.4633 18.1826 38.8688 18.7759 38.1381 18.7759C37.5721 18.7759 36.9605 18.4209 36.4173 17.7754C35.9461 17.2161 35.1103 17.1443 34.55 17.6141C33.9897 18.0844 33.9172 18.9186 34.3884 19.4778C35.0968 20.3187 35.93 20.9048 36.8129 21.2004V22.7442C36.8129 23.475 37.4064 24.0667 38.1381 24.0667C38.8698 24.0667 39.4633 23.475 39.4633 22.7442V21.1942C41.0059 20.6479 42.1141 19.1775 42.1141 17.4534C42.1141 15.2651 40.3306 13.4852 38.1381 13.4852C37.4074 13.4852 36.8129 12.8918 36.8129 12.1626C36.8129 11.4333 37.4074 10.8395 38.1381 10.8395C38.6078 10.8395 39.1034 11.0788 39.5715 11.531C40.0976 12.0391 40.9365 12.0251 41.4456 11.5005C41.9546 10.9754 41.9406 10.1382 41.415 9.63011C40.7423 8.98046 40.0691 8.61299 39.4633 8.41246V6.87179C39.4633 6.14099 38.8698 5.54871 38.1381 5.54871C37.4064 5.54871 36.8129 6.14099 36.8129 6.87179Z" fill="white"/>
</svg>
