<svg width="60" height="70" viewBox="0 0 60 70" fill="none" xmlns="http://www.w3.org/2000/svg">
<path d="M59.7345 18.9928L59.7324 18.9383C59.702 18.2659 59.6817 17.5546 59.6694 16.7631C59.6122 12.9035 56.5441 9.71088 52.6839 9.49512C44.6357 9.04598 38.4097 6.42162 33.0899 1.23647L33.0445 1.19321C31.3094 -0.397738 28.692 -0.397738 26.9563 1.19321L26.9109 1.23647C21.5912 6.42162 15.3652 9.04598 7.31693 9.49565C3.4573 9.71088 0.388616 12.9035 0.331472 16.7636C0.319723 17.5498 0.298894 18.2611 0.268453 18.9383L0.265249 19.0649C0.108771 27.2717 -0.0856258 37.4855 3.33127 46.7562C5.21008 51.8543 8.05553 56.2859 11.788 59.9287C16.0391 64.0773 21.6072 67.3708 28.3374 69.7174C28.5563 69.7938 28.7838 69.8558 29.0156 69.9022C29.3425 69.9674 29.6714 69.9999 30.0004 69.9999C30.3294 69.9999 30.6589 69.9674 30.9852 69.9022C31.217 69.8558 31.4461 69.7933 31.6661 69.7164C38.3883 67.3654 43.9505 64.0703 48.1979 59.9223C51.9288 56.2784 54.7742 51.8458 56.6546 46.7466C60.0843 37.4482 59.8905 27.2151 59.7345 18.9928ZM52.8009 45.3255C49.1971 55.0966 41.8405 61.807 30.3107 65.8391C30.2696 65.853 30.2258 65.8653 30.1804 65.8744C30.0613 65.8979 29.9401 65.8979 29.8194 65.8738C29.7745 65.8647 29.7307 65.853 29.6901 65.8391C18.1481 61.8145 10.7867 55.1078 7.18555 45.3362C4.03622 36.7907 4.21459 27.4148 4.37214 19.1434L4.37321 19.0974C4.40525 18.3866 4.42661 17.6421 4.43836 16.824C4.464 15.1102 5.82905 13.6923 7.54604 13.5967C12.1005 13.3425 16.1016 12.4623 19.7781 10.9061C23.4497 9.35199 26.7106 7.16129 29.7462 4.20903C29.9006 4.07872 30.1008 4.07819 30.2546 4.20903C33.2907 7.16129 36.5517 9.35199 40.2228 10.9061C43.8992 12.4623 47.9004 13.3425 52.4554 13.5967C54.1723 13.6923 55.5374 15.1102 55.5625 16.8245C55.5748 17.647 55.5961 18.3914 55.6282 19.0974C55.7852 27.3785 55.9593 36.7619 52.8009 45.3255Z" fill="#111546"/>
<path opacity="0.2" d="M59.7345 18.9928L59.7324 18.9383C59.702 18.2659 59.6817 17.5546 59.6694 16.7631C59.6122 12.9035 56.5441 9.71088 52.6839 9.49512C44.6357 9.04598 38.4097 6.42162 33.0899 1.23647L33.0445 1.19321C31.3094 -0.397738 28.692 -0.397738 26.9563 1.19321L26.9109 1.23647C21.5912 6.42162 15.3652 9.04598 7.31693 9.49565C3.4573 9.71088 0.388616 12.9035 0.331472 16.7636C0.319723 17.5498 0.298894 18.2611 0.268453 18.9383L0.265249 19.0649C0.108771 27.2717 -0.085626 37.4855 3.33127 46.7562C5.21007 51.8543 8.05553 56.2859 11.788 59.9287C16.0391 64.0773 21.6072 67.3708 28.3374 69.7174C28.5563 69.7938 28.7838 69.8557 29.0156 69.9022C29.3425 69.9674 29.6714 69.9999 30.0004 69.9999C30.3294 69.9999 30.6589 69.9674 30.9852 69.9022C31.217 69.8557 31.4461 69.7933 31.6661 69.7164C38.3883 67.3654 43.9505 64.0703 48.1979 59.9223C51.9288 56.2784 54.7742 51.8458 56.6546 46.7466C60.0843 37.4482 59.8905 27.2151 59.7345 18.9928Z" fill="#111546"/>
<path d="M29.9997 17.5562C20.3802 17.5562 12.5547 25.3822 12.5547 35.0011C12.5547 44.6206 20.3802 52.4467 29.9997 52.4467C39.6186 52.4467 47.4447 44.6206 47.4447 35.0011C47.4447 25.3822 39.6186 17.5562 29.9997 17.5562Z" fill="#111546"/>
<path d="M35.0135 29.5853L26.9108 37.688L24.7115 35.4888C23.9094 34.6866 22.6089 34.6866 21.8068 35.4888C21.0052 36.2909 21.0052 37.5913 21.8068 38.393L25.4587 42.0449C25.8597 42.4459 26.3853 42.6462 26.9108 42.6462C27.4363 42.6462 27.9618 42.4459 28.3629 42.0449L37.9182 32.4895C38.7199 31.6873 38.7199 30.3869 37.9182 29.5853C37.1161 28.7826 35.8156 28.7826 35.0135 29.5853Z" fill="white"/>
</svg>
