<svg width="28" height="28" viewBox="0 0 28 28" fill="none" xmlns="http://www.w3.org/2000/svg">
<g clip-path="url(#clip0)">
<path fill-rule="evenodd" clip-rule="evenodd" d="M24.098 16.1524C25.0268 17.0592 26.0071 17.9124 26.8401 18.9106C27.2081 19.3542 27.5565 19.812 27.823 20.3268C28.2007 21.0587 27.8586 21.864 27.2024 21.9077L23.1233 21.9059C22.0712 21.9932 21.2319 21.5696 20.5262 20.8503C19.9615 20.275 19.4385 19.6628 18.8954 19.0681C18.6728 18.8251 18.4398 18.5964 18.1614 18.4156C17.6045 18.0542 17.1212 18.1648 16.803 18.7456C16.4789 19.3363 16.4053 19.9904 16.3735 20.6487C16.3298 21.6093 16.0395 21.8618 15.0746 21.9058C13.0126 22.003 11.0557 21.691 9.23773 20.6508C7.63497 19.7338 6.3921 18.4392 5.31032 16.9737C3.20406 14.1198 1.59109 10.984 0.141409 7.76022C-0.184902 7.03391 0.053737 6.64403 0.855117 6.63023C2.18584 6.60438 3.51639 6.60622 4.84868 6.62839C5.38952 6.6363 5.74757 6.94651 5.95641 7.45746C6.67637 9.22775 7.55733 10.912 8.66312 12.4732C8.9576 12.8888 9.25788 13.3045 9.68548 13.597C10.1585 13.9209 10.5187 13.8136 10.7412 13.2866C10.8824 12.9525 10.9443 12.5926 10.9761 12.2347C11.0815 11.0036 11.0954 9.77448 10.9105 8.54762C10.797 7.78193 10.3657 7.28626 9.60167 7.14136C9.21179 7.06749 9.26984 6.92241 9.45861 6.69987C9.78649 6.31606 10.0949 6.07715 10.7096 6.07715H15.3196C16.0454 6.22039 16.2065 6.54642 16.3059 7.27669L16.3099 12.3975C16.3019 12.6802 16.4511 13.5191 16.9603 13.7062C17.3678 13.8394 17.6364 13.5134 17.881 13.255C18.9847 12.0835 19.7725 10.699 20.4763 9.26547C20.7886 8.63511 21.0571 7.98046 21.3174 7.32637C21.5102 6.84099 21.8128 6.60217 22.3595 6.61275L26.7964 6.61671C26.928 6.61671 27.0611 6.61864 27.1885 6.64044C27.9362 6.76786 28.141 7.08948 27.9101 7.81956C27.5463 8.96501 26.8384 9.91956 26.1462 10.8785C25.4063 11.9024 24.6149 12.8911 23.8812 13.921C23.207 14.8615 23.2605 15.3356 24.098 16.1524Z" fill="white"/>
</g>
<defs>
<clipPath id="clip0">
<rect width="28" height="28" fill="white"/>
</clipPath>
</defs>
</svg>
